<svg xmlns="http://www.w3.org/2000/svg" width="282.296" height="118.481" viewBox="0 0 282.296 118.481"><defs><style>.a{fill:#374ad3;}</style></defs><g transform="translate(-997.704 -341.702)"><g transform="translate(310 341.876)"><g transform="translate(913.844 24.716)"><g transform="translate(0 0)"><path class="a" d="M962.2,34.577c-.326-1.777-.724-3.557-.979-5.346a2.609,2.609,0,0,1,2.886-3.219,4.068,4.068,0,0,1,3.2,3.16,9.473,9.473,0,0,1-.576,5.523c-.266.782.97,1.118,1.235.341.773-2.269,1.249-4.78.269-7.065a5.063,5.063,0,0,0-4.2-3.251,4.03,4.03,0,0,0-3.953,2.414,5.836,5.836,0,0,0,.024,3.1q.426,2.345.861,4.689c.148.809,1.383.467,1.235-.341Z" transform="translate(-959.872 -24.716)"/></g></g><g transform="translate(897.125 34.211)"><g transform="translate(0 0)"><path class="a" d="M914.616,60.382a29.056,29.056,0,0,0-16.138,11.557c-1.723,2.63-1.966,5.7.244,8.141,2.239,2.471,5.8,2.877,8.936,2.451a18.9,18.9,0,0,0,10.356-5c.6-.565-.3-1.469-.905-.906a17.511,17.511,0,0,1-10.374,4.735c-3.589.315-9.18-1.42-8.339-6.091.342-1.9,1.737-3.575,2.966-4.99a28.113,28.113,0,0,1,13.595-8.657.641.641,0,0,0-.34-1.235Z" transform="translate(-897.125 -60.354)"/></g></g><g transform="translate(920.366 32.664)"><g transform="translate(0 0)"><path class="a" d="M984.55,55.164c-.328,5.049-.492,10.073,1.478,14.836,1.729,4.178,4.461,7.964,5.123,12.525.118.812,1.352.467,1.235-.341-.63-4.34-3.106-7.99-4.859-11.92-2.163-4.848-2.034-9.912-1.7-15.1.053-.823-1.228-.82-1.281,0Z" transform="translate(-984.349 -54.548)"/></g></g><g transform="translate(916.131 52.171)"><g transform="translate(0)"><path class="a" d="M968.459,128.372c.991,11.645,1.983,23.3,2.232,34.99q.186,8.725-.269,17.435c-.1,1.931-.13,4.1,1.041,5.753,1.136,1.6,3.063,2.055,4.916,2.185,2.033.142,4.158.1,4.6-2.306a40.01,40.01,0,0,0,.324-9.418c-.049-.819-1.33-.825-1.28,0a49.457,49.457,0,0,1-.1,7.418c-.115,1.262-.037,2.934-1.665,3.066a11.647,11.647,0,0,1-3.255-.217c-2.469-.529-3.3-2.479-3.342-4.81-.044-2.219.193-4.455.263-6.672a298.9,298.9,0,0,0-.809-30.194c-.4-5.748-.888-11.489-1.376-17.23-.069-.815-1.351-.823-1.281,0Z" transform="translate(-968.457 -127.758)"/></g></g><g transform="translate(922.911 48.879)"><g transform="translate(0 0)"><path class="a" d="M993.946,116.177c3.18,8.417,6.22,16.905,9.551,25.264a9.567,9.567,0,0,0,2.314,3.767,7.788,7.788,0,0,0,4.415,1.659,89.948,89.948,0,0,0,13.348.311c.822-.029.825-1.31,0-1.281a109.5,109.5,0,0,1-12.36-.221c-1.83-.142-3.758-.425-5.018-1.9a15.743,15.743,0,0,1-2.271-4.8l-8.744-23.14c-.289-.764-1.527-.433-1.235.341Z" transform="translate(-993.902 -115.404)"/></g></g><g transform="translate(927.784 98.126)"><g transform="translate(0)"><path class="a" d="M1012.809,304.446a211.513,211.513,0,0,0,23.172-2.962c.809-.149.467-1.384-.34-1.235a208.408,208.408,0,0,1-22.832,2.916c-.817.059-.824,1.34,0,1.281Z" transform="translate(-1012.194 -300.237)"/></g></g><g transform="translate(949.937 79.167)"><g transform="translate(0 0)"><path class="a" d="M1096.07,249.576a15.516,15.516,0,0,1,1.739,8.273.629.629,0,0,0,.317.553c2.917,1.565,6.38.1,8.236-2.427,2.558-3.478,1.95-8.342,1.75-12.375-.185-3.741.412-8.9-2.564-11.749-2.5-2.388-6.325-2.66-9.594-2.772-.824-.028-.823,1.253,0,1.281,2.823.1,6.18.261,8.445,2.177,2.758,2.332,2.224,6.864,2.385,10.111.174,3.519.74,7.419-.522,10.8-1.06,2.841-4.428,5.49-7.49,3.847l.317.553a16.8,16.8,0,0,0-1.914-8.92c-.382-.731-1.488-.084-1.106.646Z" transform="translate(-1095.337 -229.078)"/></g></g><g transform="translate(960.892 84.251)"><g transform="translate(0 0)"><path class="a" d="M1136.617,248.747a13.163,13.163,0,0,1,6.784,7.17c.149.379.768.214.618-.17a13.788,13.788,0,0,0-7.078-7.553c-.372-.172-.7.38-.323.553Z" transform="translate(-1136.451 -248.162)"/></g></g><g transform="translate(966.421 91.511)"><g transform="translate(0 0)"><path class="a" d="M1158.018,276.228a21.665,21.665,0,0,0-.7,6.966.325.325,0,0,0,.547.226c2.207-1.707,4.41-5.272,1.554-7.53a.325.325,0,0,0-.547.226l-.061,4.5c-.006.418.605.4.64,0a8.735,8.735,0,0,0-.232-2.921c-.092-.373-.595-.255-.629.085a7.307,7.307,0,0,1-.563,2.2l.585.076a4.413,4.413,0,0,1-.134-1.881c.048-.359-.548-.432-.629-.085l-.645,2.784a.322.322,0,0,0,.585.247,10.561,10.561,0,0,0,1.381-5.41l-.6.161c1.394,1.862,2.76,5.535-.354,6.642-.385.137-.219.756.17.618,3.485-1.239,2.432-5.317.737-7.583a.323.323,0,0,0-.6.162,9.9,9.9,0,0,1-1.294,5.086l.585.246.645-2.784-.629-.085a4.775,4.775,0,0,0,.157,2.051c.069.239.472.343.585.076a8.494,8.494,0,0,0,.65-2.523l-.629.085a8.232,8.232,0,0,1,.209,2.751h.64l.061-4.5-.547.227c2.577,2.036.381,5.128-1.554,6.624l.547.226a21.111,21.111,0,0,1,.672-6.8.32.32,0,0,0-.618-.17Z" transform="translate(-1157.202 -275.408)"/></g></g><g transform="translate(916.358 25.313)"><g transform="translate(0 0)"><path class="a" d="M974.654,34.934c0-3.177-.725-7.4-4.543-7.967-.806-.119-1.154,1.115-.34,1.235,3.222.475,3.6,4.1,3.6,6.732a.641.641,0,0,0,1.281,0Z" transform="translate(-969.307 -26.959)"/></g></g><g transform="translate(910.131 40.524)"><g transform="translate(0 0)"><path class="a" d="M947.392,85.526c.121-.006-.018-.022-.058-.034.063.019.035.046,0,0-.1-.129.049.1-.014-.044l.018.054q.022.1.007.027c-.014,0,.03-.156-.008-.033,0-.014.07-.12.024-.065s.025-.026.059-.029c-.059,0-.143.076-.064.021h-.06c.06.012.067.012.021,0s-.127-.046-.043-.01c-.062-.026-.048-.05-.006.006.03.04-.051-.082-.058-.1.043.111-.011-.125.005.006,0-.016,0-.176,0-.115s.03-.108.031-.111c-.031.09.048-.078.054-.087l-.553.317a.6.6,0,0,1,.11,0l-.065-.006c.06.019.068.021.023,0s-.038-.014.018.015q-.074-.064-.023-.018a.611.611,0,0,1,.058.057c-.086-.085.009.021.028.049.075.114-.066-.067.018.051l.013.053q-.013-.122-.007-.01l0,.053q.016-.11,0-.04t.014-.03a.6.6,0,0,1-.061.091l.876-.23a.563.563,0,0,1-.238-.448.64.64,0,0,0-1.281,0,1.9,1.9,0,0,0,.872,1.553.656.656,0,0,0,.876-.23,1.457,1.457,0,0,0-.59-2.059,1.264,1.264,0,0,0-.639-.135.748.748,0,0,0-.648.494,1.625,1.625,0,0,0,.01,1.424,1.388,1.388,0,0,0,2.222.3,1.24,1.24,0,0,0-.935-2.025.654.654,0,0,0-.64.64.646.646,0,0,0,.64.64Z" transform="translate(-945.936 -84.046)"/></g></g><g transform="translate(899.408 43.949)"><path class="a" d="M906.308,98.185a10.951,10.951,0,0,1,9.985,9.462c.092.809,1.374.819,1.281,0A12.26,12.26,0,0,0,906.308,96.9c-.823-.051-.82,1.229,0,1.281Z" transform="translate(-905.691 -96.902)"/></g><g transform="translate(900.205 49.905)"><g transform="translate(0 0)"><path class="a" d="M909.216,120.218l.736.995.383-.941a.567.567,0,0,1-.087.026c-.047.011-.039.01.022,0h-.059c.062.012.069.013.023,0s-.129-.04-.046,0a.728.728,0,0,1-.156-.093c.07.056-.006-.014-.028-.042s-.027-.03.008.01l-.031-.051q-.046-.09-.017-.032c.018.039.017.027,0-.036l.006.052a.687.687,0,0,1,0-.121l-1.193.323.5.819,1.106-.646c-.072-.106.017.107-.005.172-.013.038-.117.134-.015.051l-.623.165c.074.026.088.027.043,0a.948.948,0,0,1,.12.07c-.026-.02.035.043.053.072a.64.64,0,1,0,1.106-.646c-.27-.426-.941-.983-1.475-.67a1.039,1.039,0,0,0-.31,1.429.657.657,0,0,0,.876.23.649.649,0,0,0,.23-.876l-.5-.819a.646.646,0,0,0-1.193.323,1.565,1.565,0,0,0,1.989,1.526.646.646,0,0,0,.383-.941l-.736-.995a.66.66,0,0,0-.876-.23.645.645,0,0,0-.23.876Z" transform="translate(-908.683 -119.256)"/></g></g><g transform="translate(903.75 27.607)"><g transform="translate(0 0)"><path class="a" d="M931.014,43.11a20.556,20.556,0,0,0-4.31-4.848c-.653-.527-1.419-1.244-2.329-1.117-.315.044-.822.49-1.1.106-.243-.34,1.5-.4,1.723-.387l-.64-.64a.866.866,0,0,1-.626,1.017l.81.618q.008-.241.016-.482l.294.723.375-1.013c.287-.774-.95-1.108-1.235-.34l-.375,1.013a.641.641,0,0,0,.294.723c1.024.494,2.824-.55,1.962-1.764s-2.558.014-2.612,1.14a.644.644,0,0,0,.81.617,2.187,2.187,0,0,0,1.567-2.252.657.657,0,0,0-.641-.641c-1.03-.059-2.38.01-2.867,1.1a1.641,1.641,0,0,0,.6,2.077,1.282,1.282,0,0,0,1.157,0c.594-.249.461-.5,1.366-.008a7.764,7.764,0,0,1,1.189.962,19.476,19.476,0,0,1,3.462,4.043c.447.689,1.556.048,1.106-.646Z" transform="translate(-921.989 -35.568)"/></g></g><g transform="translate(900.864 32.092)"><path class="a" d="M918.814,56.961l-4.625-3.331a.466.466,0,0,0-.485,0q-.8.762-1.741-.509l.128.943,1.232-.354-.467-.8-.787-.04c-.34-.513-1.172-.032-.829.485a1.425,1.425,0,0,0,2.3.234.484.484,0,0,0-.467-.8l-1.232.354a.483.483,0,0,0,.128.943.869.869,0,0,0,.7-1.411c-.6-.709-1.412.118-1.444.817a1.553,1.553,0,0,0,2.182,1.4c.294-.095.372-.2.687-.154.432.067,1.179.849,1.542,1.11l2.7,1.943c.5.362.982-.471.485-.829Z" transform="translate(-911.158 -52.4)"/></g><g transform="translate(927.541 100.422)"><g transform="translate(0)"><path class="a" d="M1015.86,309.319c-.065,2.225.869,4.405.576,6.622a3.087,3.087,0,0,1-1.671,2.655,1.857,1.857,0,0,1-2.535-.956.481.481,0,0,0-.926.255c.626,2.066,3.424,2.348,4.851.925,2.534-2.529.577-6.5.665-9.5a.481.481,0,0,0-.961,0Z" transform="translate(-1011.282 -308.855)"/></g></g><g transform="translate(947.009 98.73)"><g transform="translate(0 0)"><path class="a" d="M1084.579,302.841a5.31,5.31,0,0,0,6.132,6.758c.608-.109.35-1.035-.255-.926a4.341,4.341,0,0,1-4.95-5.577.481.481,0,0,0-.926-.255Z" transform="translate(-1084.347 -302.503)"/></g></g><g transform="translate(917.988 70.535)"><g transform="translate(0 0)"><path class="a" d="M975.891,197.644a4.039,4.039,0,0,1,.956,8c-.6.142-.347,1.068.255.926a5,5,0,0,0-1.211-9.892.481.481,0,0,0,0,.961Z" transform="translate(-975.427 -196.683)"/></g></g><g transform="translate(938.473 79.095)"><g transform="translate(0)"><path class="a" d="M1052.327,230.145a6.064,6.064,0,0,0,11.957-.877c.074-.612-.887-.607-.96,0a5.106,5.106,0,0,1-10.07.622.481.481,0,0,0-.926.256Z" transform="translate(-1052.309 -228.811)"/></g></g><g transform="translate(926.569 84.115)"><path class="a" d="M1009.293,249.067c2.907-1.767,6.651,1.941,3.839,4.552s-6.219-1.705-3.681-4.048c.455-.42-.225-1.1-.679-.679a3.922,3.922,0,0,0-.387,5.088,3.5,3.5,0,0,0,5.176.534,3.742,3.742,0,0,0,.671-5.394,4.337,4.337,0,0,0-5.424-.883.481.481,0,0,0,.485.829Z" transform="translate(-1007.632 -247.649)"/></g><g transform="translate(924.766 59.378)"><path class="a" d="M1002.371,154.926a4.006,4.006,0,0,0,1.686,7.048c.6.136.859-.79.255-.926a3.049,3.049,0,0,1-1.262-5.442c.479-.391-.2-1.068-.679-.679Z" transform="translate(-1000.866 -154.81)"/></g><g transform="translate(950.648 84.755)"><g transform="translate(0 0)"><path class="a" d="M1101.233,250.418c-1.565.767-3.376,1.93-3.221,3.931.148,1.9,2.234,2.535,3.856,2.312a3.931,3.931,0,0,0,3.533-3.136,3.128,3.128,0,0,0-2.2-3.455.481.481,0,0,0-.255.926,2.19,2.19,0,0,1,1.488,2.561,3.049,3.049,0,0,1-2.693,2.147c-1.365.189-3.1-.384-2.7-2.089.289-1.227,1.647-1.865,2.675-2.369.555-.272.069-1.1-.485-.829Z" transform="translate(-1098.003 -250.052)"/></g></g><g transform="translate(916.233 52.364)"><path class="a" d="M969.571,129.587c1.7-.8,3.205,1.234,3.018,2.77-.205,1.682-1.611,2.915-2.948,3.788-.516.337-.035,1.169.485.829,1.875-1.224,4.019-3.37,3.352-5.849a3.271,3.271,0,0,0-4.391-2.368c-.56.261-.073,1.09.485.829Z" transform="translate(-968.838 -128.486)"/></g></g><g transform="translate(-393.456 279.284)"><path class="a" d="M1602.938,146.35c-.644.278-.088,1.221.552.944,2.542-1.1,5.393.442,6.835,2.594,1.639,2.445,1.736,5.6,1.708,8.444-.013,1.352.1,2.967-.625,4.167a5.1,5.1,0,0,1-3.6,2.045,7.558,7.558,0,0,1-7.067-2.852c-.421-.552-1.371-.008-.944.552a8.677,8.677,0,0,0,7.839,3.418,6.8,6.8,0,0,0,4.088-1.808c1.2-1.229,1.342-2.892,1.384-4.524.091-3.559.065-7.663-2.274-10.59C1608.948,146.38,1605.808,145.11,1602.938,146.35Z" transform="translate(-71.334 -16.731)"/><path class="a" d="M1592.445,136.611a12.335,12.335,0,0,0-3.445-8.028.552.552,0,0,0-.859.111,13.761,13.761,0,0,0-1.66,7.883,15.281,15.281,0,0,0,.929,3.8c.208.571.692,1.223.527,1.843a2.291,2.291,0,0,1-1.067,1.143,4.162,4.162,0,0,1-2.855.347c-3.2-.7-4.322-3.85-5.518-6.487-.711-1.569-1.6-3.047-3.13-3.678a18.117,18.117,0,0,0-10.561-9.576,20.534,20.534,0,0,0-2.13-.577.5.5,0,0,0-.433-.229c-.278,0-.556,0-.834,0a30.808,30.808,0,0,0-10.491.383c-1.642.129-3.281.287-4.917.484q-3.974.477-7.912,1.2c-1.491.277-3.16.889-4.61.2-.961-.454-1.734-1.216-2.712-1.652-3.349-1.5-7.365-.283-10.042,2.01a16.986,16.986,0,0,0-4.52,6.85c-2.514,4.164-2.749,8.986-2.69,13.75a41.918,41.918,0,0,1-.339,8.66c-.524,2.62-2.7,6.076-5.8,4.343-1.332-.743-2.819-2.27-4.5-1.533a2.52,2.52,0,0,0-1.124,3.015c.8,3.147,5.74,4.684,8.554,4.966,3.923.394,7.871-1.229,9.429-5.012a.429.429,0,0,0-.213-.585,29.631,29.631,0,0,0,2.536-7.44c.141-.722.254-1.451.341-2.181q.029-.256.057-.512-.177-.714.56-.64a2.6,2.6,0,0,1,1.6.087l5.769,1.128c-.43,4.229,1.455,8.576,2.625,12.558l2.023,6.887c.413,1.4.61,3.578,1.855,4.543,1.22.944,3.268.926,4.729,1.015,1.689.1,3.745.272,5.324-.466,3.123-1.46,2.6-5.117,1.7-7.87a75.067,75.067,0,0,1,11.528-1.93.561.561,0,0,0-.016.16l.285,5.508c.051.982-.1,2.317,1,2.786,1.146.489,2.921.034,4.1-.179l.071-.014a7.216,7.216,0,0,0,5.057-1.33c2.06-1.719,2.916-4.962,3.826-7.365a57.6,57.6,0,0,0,3.653-16.075,31.3,31.3,0,0,0-1.983-13.571c1.473,1.533,2.07,4.428,3.073,5.989,1.407,2.191,3.751,3.882,6.464,3.526a4.258,4.258,0,0,0,2.86-1.522,2.225,2.225,0,0,0,.41-.872.569.569,0,0,0,.48.315C1592.213,143.148,1592.523,138.419,1592.445,136.611Zm-17.513,23.494a48.728,48.728,0,0,1-2.976,8.333,10.853,10.853,0,0,1-1.677,2.7.565.565,0,0,0-.347.043,20.159,20.159,0,0,1-3.635,1.25c-.189.045-.413.1-.657.167a13.3,13.3,0,0,1-1.979-.253.581.581,0,0,0-.676.671,2.127,2.127,0,0,1-.494-.082c-1.359-.424-.982-2.4-1.038-3.49l-.2-3.855a.53.53,0,0,0-.376-.494c.166-.338.016-.823-.458-.783a76.952,76.952,0,0,0-12.166,2.02c-.3-.4-1.013-.212-1,.26-.161.042-.322.081-.482.125a.547.547,0,0,0,.291,1.054c.181-.049.364-.094.545-.142a7.735,7.735,0,0,1,.62,4.2c-.442,2.071-2.016,2.723-3.975,2.81a24.363,24.363,0,0,1-5.086-.3,2.364,2.364,0,0,1-2.193-1.53,22.054,22.054,0,0,1-.712-2.412l-2.833-9.641c-.987-3.36-2.375-6.851-1.906-10.407a.42.42,0,0,0-.313-.5.482.482,0,0,0-.3-.172l-6.813-1.332c-1.17-.229-2.349-.47-2.644.954-.433,2.089-.561,4.152-1.2,6.214a29.333,29.333,0,0,1-2.9,6.432.489.489,0,0,0,.03.58,8.639,8.639,0,0,1-7.36,2.186,13.407,13.407,0,0,1-5.059-1.822,4.527,4.527,0,0,1-2.113-2.163c-.33-1.029.132-2.176,1.391-1.884,1.574.365,2.577,1.9,4.248,2.094a4.724,4.724,0,0,0,4-1.74c2.577-2.938,2.176-7.771,2.134-11.4a40.949,40.949,0,0,1,.692-10.085.506.506,0,0,0,.48-.383c.4-1.378.84-2.811,1.385-4.206.062-.1.124-.2.19-.306a.488.488,0,0,0,.079-.361,14.185,14.185,0,0,1,4.957-6.578,9.3,9.3,0,0,1,5.7-1.648c2.212.153,3.413,1.7,5.366,2.389,1.88.659,4.137-.207,6.007-.537q3.8-.67,7.631-1.095c.315-.035.631-.065.946-.1a.515.515,0,0,0,.6.265q1.2-.3,2.425-.54,5.093-.394,10.207-.366c.237.037.473.077.708.122a16.8,16.8,0,0,1,11.18,7.537c.3.458.576.924.837,1.394a.587.587,0,0,0,.281,1.051c.1.013.2.032.3.054C1578.472,142.38,1577.321,151.759,1574.932,160.105Zm13.808-30.174c.03.035.058.071.087.107a.466.466,0,0,0-.2.437q.037.676.074,1.351a.588.588,0,0,0-.532-.459A12.969,12.969,0,0,1,1588.74,129.931Zm-1.127,3.93q.081,1.8.161,3.6.006.2.011.406A12.448,12.448,0,0,1,1587.614,133.862Zm.8,6.094c-.134-.333-.249-.67-.352-1.01a.606.606,0,0,0,.444.079q.1.837.208,1.675C1588.624,140.455,1588.52,140.208,1588.418,139.955Zm1.511,1.7-.129-1.039a.511.511,0,0,0,.807-.3,16.2,16.2,0,0,0,.142-6.859,11.191,11.191,0,0,1,.417,1.564C1591.378,136.13,1591.7,141.143,1589.93,141.655Z"/><path class="a" d="M1570.078,171.24l.371-.108c-1.064.418-.785,2.328.342,2.519a1.6,1.6,0,0,0,1.494-2.3A1.924,1.924,0,0,0,1570.078,171.24Z" transform="translate(-49.572 -34.977)"/></g><g transform="translate(751.222 255.554) rotate(-8)"><path class="a" d="M320.023,210.833a4.8,4.8,0,0,1-4.917,3.371,4.457,4.457,0,0,0,.439-.93,2.982,2.982,0,0,0-.92-3.331,2.415,2.415,0,0,0-2.962-.282,2.553,2.553,0,0,0-.327,3.327,4.191,4.191,0,0,0,2.233,1.807c-1.285,1.38-3.408,2.7-4.68,1.378a.39.39,0,0,0-.217-.121q-.17-.28-.353-.555c-3.7-5.535-10.329-8.256-16.727-9.033a69.979,69.979,0,0,0-12.478-.091c.13-1.729-.019-3.793-1.871-4.462a2.572,2.572,0,0,0-2.2.152c-.946.6-.509,1.578-1.1,2.308-.623.766-2.177.434-3.025.355a9.805,9.805,0,0,0-3.28.2,20.6,20.6,0,0,0-6.861,3.656.653.653,0,0,0-.07.062,2.432,2.432,0,0,0-1.623.572,10.294,10.294,0,0,0-2.507,3.766,16.509,16.509,0,0,0-1.411,4.727,2.789,2.789,0,0,0,.939,2.869.623.623,0,0,0,.275.642L266.61,227.9a.588.588,0,0,0-.078.215,34.416,34.416,0,0,0-.419,4.922,11.667,11.667,0,0,0,.38,4.028c.793,2.191,3.6,2.666,5.632,3,1.967.325,4.2.264,5.736-1.177,1.683-1.577,1.744-3.948,1.5-6.123a44.047,44.047,0,0,0,14.319,2.127,4.81,4.81,0,0,0,.41,4.912c1.375,2.042,3.912,2.727,6.255,2.69,2.176-.034,4.821-.508,6.066-2.5,1.093-1.746.742-3.867,1.064-5.826a.6.6,0,0,0,.992-.092c2.615-5.1,3.41-11.314.989-16.548,1.687.461,3.782-.944,5.054-2.495.078.012.156.029.234.038a5.7,5.7,0,0,0,6.143-4.084C321.024,210.441,320.159,210.286,320.023,210.833Zm-63.646,6.709a15.955,15.955,0,0,1,.852-3.088.713.713,0,0,0,.1.078,1.787,1.787,0,0,0,.1.373,1.761,1.761,0,0,0,.509.711c0,.051,0,.1.012.153a.6.6,0,0,0,1.029.329,2.607,2.607,0,0,0,.326-.36,1.2,1.2,0,0,0,.482-1.5L260,213.3a.527.527,0,0,0-.045-.389c-.092-.451-.671-.768-.984-.3l-.375.565c.016-.079.031-.155.04-.224a.624.624,0,0,0-.4-.641c.057-.1.112-.206.171-.306.437-.741,1.194-2.186,2.208-2.217,1.162-.035,1.672,1.391,1.641,2.323,0,.009,0,.016,0,.024a.449.449,0,0,0-.432.463,9.915,9.915,0,0,1-1.874,5.522,3.846,3.846,0,0,1-2.124,1.567C256.344,220,256.18,218.708,256.377,217.541Zm51.554,14.94c-.008-.551-.847-.864-1.109-.258-.7,1.616-.587,3.3-.781,5.015-.261,2.3-1.572,3.5-3.848,3.9-2.027.357-4.42.323-6.146-.955-1.5-1.113-2.313-3.4-1.178-5.037a.608.608,0,0,0,.108-.3c.933-.045,1.866-.116,2.8-.221a.587.587,0,0,0-.1-1.168,42.71,42.71,0,0,1-18.5-1.984.626.626,0,0,0-.85-.3l-.083-.029c-.7-.257-1.217.8-.509,1.056.135.049.271.094.407.142.268,1.885.448,4.119-.944,5.561-1.331,1.378-3.442,1.267-5.174.944a18.309,18.309,0,0,1-2.678-.693,2.7,2.7,0,0,1-1.96-2.5,26.55,26.55,0,0,1,.308-7.335.573.573,0,0,0-.035-.312.655.655,0,0,0-.162-.928l-9.547-6.226a4.387,4.387,0,0,0,1.163-.437c2.572-1.387,3.748-4.866,3.875-7.609a.631.631,0,0,0-.028-.213.625.625,0,0,0,.473-.588,3.5,3.5,0,0,0-1.392-2.879,20.713,20.713,0,0,1,4.955-2.786,8.38,8.38,0,0,1,3.454-.491,18.749,18.749,0,0,0,2.235.139,2.451,2.451,0,0,0,2.633-1.975c.113-.551.123-.976.764-1.1a1.637,1.637,0,0,1,1.185.311c.9.678.8,2.142.681,3.212l-.134.008a.586.586,0,0,0,.1,1.167c8.642-.516,18.252-1,25.555,4.5a15.218,15.218,0,0,1,6.1,9.668A18.9,18.9,0,0,1,307.931,232.481Zm3.82-20.961c-.1-1.483,1.384-1.645,2.3-.91a2.249,2.249,0,0,1,.432,2.939,4.164,4.164,0,0,1-.306.5A2.916,2.916,0,0,1,311.751,211.52Z"/><path class="a" d="M348.762,237.752a2.128,2.128,0,0,0-1.743-.206q-.13.014-.26.037l-.638-.228a.621.621,0,0,0-.81.34q-.139.027-.278.064a.59.59,0,0,0-.188.988.627.627,0,0,0-.135.975,1.972,1.972,0,0,0,1.012.552,2.519,2.519,0,0,0,.263.133,2.149,2.149,0,0,0,3.44-.61,4.8,4.8,0,0,0,.552-.2.594.594,0,0,0,.181-1A4.008,4.008,0,0,0,348.762,237.752Z" transform="translate(-65.263 -25.967)"/><path class="a" d="M393.47,239.172a.553.553,0,0,0-.364.568.5.5,0,0,0-.414.6,1.2,1.2,0,0,0,.03.132,2.165,2.165,0,0,0,.39,2.173,2.044,2.044,0,0,0,3.375-1.038C396.938,239.9,394.988,238.571,393.47,239.172Zm1.263,2.013a.672.672,0,0,0,.209-.3c.043.062.085.178.118.24a.289.289,0,0,1-.1.067c-.073.018-.137.044-.212.055a1,1,0,0,1-.111.008C394.669,241.233,394.7,241.212,394.733,241.185Z" transform="translate(-100.336 -27.216)"/><path class="a" d="M377.531,224.6l-.332-.241a.909.909,0,0,0,.032-1.006.594.594,0,0,0-.815-.148l-.514.328a.659.659,0,0,0-.625.4l-.142.091a.539.539,0,0,0-.234.358.714.714,0,0,0,.055.729.807.807,0,0,0,.649.312,2,2,0,0,0,1.746.175A.591.591,0,0,0,377.531,224.6Zm-1.274-.924-.037-.026c-.009-.006-.018-.01-.026-.015C376.211,223.567,376.267,223.636,376.257,223.675Z" transform="translate(-87.374 -15.598)"/><path class="a" d="M422.934,241.514a.807.807,0,0,0,.649.312,2,2,0,0,0,1.745.174.591.591,0,0,0,.181-1l-.332-.241a.909.909,0,0,0,.032-1.005.593.593,0,0,0-.815-.148l-.513.328a.659.659,0,0,0-.625.4l-.142.091a.54.54,0,0,0-.235.358A.714.714,0,0,0,422.934,241.514Zm1.3-1.433-.036-.027c-.009-.006-.018-.01-.026-.015C424.189,239.973,424.245,240.042,424.235,240.081Z" transform="translate(-122.392 -27.572)"/><path class="a" d="M417.777,256.35a.615.615,0,0,0-.627-.217.99.99,0,0,0-.632.438,3.512,3.512,0,0,0-.933.49,6.254,6.254,0,0,0-1.053.66.591.591,0,0,0-.081.886c0,.006,0,.011-.006.016a.6.6,0,0,0,.423.831,8.158,8.158,0,0,0,4.142-.169,1.471,1.471,0,0,0,1-1.958A1.988,1.988,0,0,0,417.777,256.35Zm-1.152,1.827a1.514,1.514,0,0,1-.523.019,2.546,2.546,0,0,1,.364-.3A1.455,1.455,0,0,0,416.625,258.177Z" transform="translate(-116.176 -39.69)"/><path class="a" d="M301.734,224.511l.3.091c-.9-.186-1.551,1.223-.876,1.847a1.286,1.286,0,0,0,2.016-.893A1.546,1.546,0,0,0,301.734,224.511Z" transform="translate(-33.399 -16.622)"/></g><g transform="translate(332.696 158.115)"><g transform="translate(667.588 274.498)"><g transform="translate(0)"><path class="a" d="M684.221,274.655c-3.8-.407-6.612,3.242-7.364,6.6a8.122,8.122,0,0,0,4.083,9.216c3.3,1.6,7.781,1.916,10.41-1.018,2.594-2.894,2.432-7.074.907-10.441a7.063,7.063,0,0,0-4.208-4.174,11.079,11.079,0,0,0-6.237.266c-.574.162-.393,1.079.187.915a10.343,10.343,0,0,1,5.742-.3c2.113.634,3.266,2.524,4,4.48,1.4,3.737.673,9.166-3.827,10.345-4.143,1.086-9.3-1.327-10.206-5.662-.8-3.819,1.841-9.792,6.45-9.3.6.064.659-.868.063-.931Z" transform="translate(-676.638 -274.498)"/></g></g><g transform="translate(665.008 282.835)"><g transform="translate(0 0)"><path class="a" d="M667.852,312.172a21.741,21.741,0,0,0-2.69,2.437.473.473,0,0,0,.045.738,13.924,13.924,0,0,0,3.5,1.583c.575.169.885-.712.308-.882a13.03,13.03,0,0,1-3.287-1.474l.045.738a21.743,21.743,0,0,1,2.69-2.437c.478-.365-.139-1.066-.614-.7Z" transform="translate(-665.008 -312.071)"/></g></g><g transform="translate(671.178 280.88)"><g transform="translate(0 0)"><path class="a" d="M693.355,303.689l-.015.022.178-.156.064-.026.248.016.061.032.156.178-.01-.024.048.239,0-.026-.079.231.016-.021-.178.156-.064.021-.248-.017-.063-.032-.156-.178c.052.083-.011-.107-.01-.122s.03-.088,0-.03a.236.236,0,0,1,.324-.129.231.231,0,0,1,.172.2c.011.055.017-.019,0,.034-.036.091-.031.118-.144.186l-.47-.031c-.08-.063.019.04-.029-.04a.5.5,0,0,1,.034.068c-.016-.049-.019-.057-.012-.024a.4.4,0,0,1,.009.056c0-.056-.006-.066-.007-.03s0,.025.009-.03c-.019.049-.015.048.011,0l.648-.124c-.023-.014-.044-.029-.067-.043.035.022.034.034,0,0s-.02-.035,0,0c-.005-.011-.051-.109-.029-.052s0-.031-.007-.038c-.022-.051-.008.061,0,.006,0-.011,0-.1,0-.037s.014-.041.019-.053l-.859.054.2.359a.467.467,0,1,0,.836-.416l-.2-.359a.473.473,0,0,0-.859.054,1.1,1.1,0,0,0,.446,1.3.472.472,0,0,0,.648-.124,1,1,0,0,0-.263-1.293.455.455,0,0,0-.47-.031.7.7,0,0,0-.365.555.74.74,0,0,0,.172.537.693.693,0,0,0,1.1-.816.533.533,0,0,0-.771-.18.517.517,0,0,0-.014.841.54.54,0,0,0,.76-.137.467.467,0,1,0-.773-.524Z" transform="translate(-692.817 -303.26)"/></g></g><g transform="translate(675.263 283.901)"><g transform="translate(0 0)"><path class="a" d="M712.026,318.583a6.267,6.267,0,0,1,4.9-.62c.539.186.594.35.131,1.09a2.708,2.708,0,0,1-1.544,1.048c-.708.214-2.162.528-2.786.1a.467.467,0,0,0-.524.773c1.027.7,2.929.305,4-.125,1.106-.444,2.276-1.591,2.054-2.9-.2-1.176-1.824-1.014-2.739-1.057a6.454,6.454,0,0,0-4.1.99c-.5.337.123,1.036.614.7Z" transform="translate(-711.229 -316.878)"/></g></g><g transform="translate(675.403 291.383)"><g transform="translate(0)"><path class="a" d="M711.857,351.017a18.27,18.27,0,0,0,.329,3.381.467.467,0,0,0,.915-.187,16.917,16.917,0,0,1-.312-3.131c0-.6-.935-.664-.931-.062Z" transform="translate(-711.857 -350.597)"/></g></g><g transform="translate(673.799 294.91)"><g transform="translate(0)"><path class="a" d="M706.42,367.828a3.133,3.133,0,0,0,1.35-.445c.426-.257.244-1.013-.3-.875a17.3,17.3,0,0,0-2.586.875.469.469,0,0,0,.3.875l1.861-.488c.578-.152.4-1.068-.187-.915l-1.861.488.3.875a15.753,15.753,0,0,1,2.357-.8l-.3-.875a2.509,2.509,0,0,1-1.121.366c-.6.055-.406.969.187.915Z" transform="translate(-704.631 -366.491)"/></g></g><g transform="translate(678.791 290.65)"><path class="a" d="M727.126,347.712a18.279,18.279,0,0,0,.329,3.381.467.467,0,0,0,.915-.187,16.914,16.914,0,0,1-.312-3.131c0-.6-.935-.665-.931-.063Z" transform="translate(-727.126 -347.292)"/></g><g transform="translate(677.177 294.213)"><g transform="translate(0 0)"><path class="a" d="M721.639,364.654a3.138,3.138,0,0,0,1.363-.407c.433-.245.273-1.006-.277-.884a17.342,17.342,0,0,0-2.61.8.469.469,0,0,0,.277.884l1.874-.435c.582-.135.426-1.056-.161-.919l-1.874.435.277.884a15.72,15.72,0,0,1,2.378-.729l-.277-.884a2.508,2.508,0,0,1-1.132.334c-.6.038-.434.957.161.92Z" transform="translate(-719.852 -363.351)"/></g></g></g><g transform="translate(-288.384 -392.716)"><g transform="translate(1367.174 747.97)"><g transform="translate(0 0)"><path class="a" d="M1376.471,758.112c-2.686-3.166.822-6.7,3.777-7.755,2.857-1.021,8.475-.975,7.912,3.483-.066.524.611.637.927.384,2.825-2.265,6.962-3.66,10.117-1.2a4.52,4.52,0,0,1,1.873,4.526,3.851,3.851,0,0,1-4.245,3.008.545.545,0,0,0-.418.992c1.652,1.058,1.695,3.308.85,4.913-.975,1.853-3.155,2.665-5.1,3.037a13.479,13.479,0,0,1-6.117.071,4.908,4.908,0,0,1-2.272-1.656,2.323,2.323,0,0,0-1.413-.907,5.127,5.127,0,0,0-2.307.7,13.474,13.474,0,0,1-3.389.871,7.6,7.6,0,0,1-6.234-1.9c-3.751-3.8-.011-9.956,5.066-8.727.679.164.968-.882.289-1.047a6.36,6.36,0,0,0-7.89,5.006c-.618,3.761,2.157,6.851,5.715,7.61a11.819,11.819,0,0,0,6.486-.674,9.156,9.156,0,0,1,1.34-.549,1.829,1.829,0,0,1,1.912.8,5.007,5.007,0,0,0,2.022,1.389,12.478,12.478,0,0,0,5.846.251,11.1,11.1,0,0,0,5.328-1.865c2.567-1.924,3.441-6.321.412-8.261l-.418.992c4.609.873,7.184-4.748,4.562-8.2-3.288-4.33-9.125-2.885-12.785.049l.926.384a4.624,4.624,0,0,0-2.812-4.681c-2.149-.983-4.766-.522-6.888.3-3.663,1.427-6.926,5.78-3.842,9.414.453.533,1.217-.238.768-.767Z" transform="translate(-1367.621 -748.413)"/><path class="a" d="M1387.93,770.716a8.779,8.779,0,0,1-3.071-.485,5.217,5.217,0,0,1-2.1-1.441,1.638,1.638,0,0,0-1.734-.738,3.51,3.51,0,0,0-.81.318c-.176.085-.342.166-.5.222a11.861,11.861,0,0,1-6.595.681c-3.939-.842-6.461-4.208-5.866-7.833a6.252,6.252,0,0,1,2.747-4.24,6.8,6.8,0,0,1,3.893-1.117,4.8,4.8,0,0,1,.088-2,8.332,8.332,0,0,1,5.039-5.238c1.552-.6,4.531-1.448,7.04-.3a4.976,4.976,0,0,1,2.87,3.468,11.1,11.1,0,0,1,7.151-1.906,6.79,6.79,0,0,1,4.724,2.745,5.6,5.6,0,0,1,.238,6.3,4.7,4.7,0,0,1-3.085,2.209,4.474,4.474,0,0,1,.66,2.227,6.152,6.152,0,0,1-2.407,5,11.467,11.467,0,0,1-5.42,1.9A22.672,22.672,0,0,1,1387.93,770.716Zm-6.517-3.09a2.091,2.091,0,0,1,1.638.9,4.832,4.832,0,0,0,1.945,1.337,12.34,12.34,0,0,0,5.753.24,11.108,11.108,0,0,0,5.236-1.828,5.832,5.832,0,0,0,2.25-4.679,4.054,4.054,0,0,0-.7-2.176,4.934,4.934,0,0,1-.876.013,4.145,4.145,0,0,1,.324,4.678c-.829,1.576-2.589,2.632-5.231,3.137a13.79,13.79,0,0,1-6.21.066,5.081,5.081,0,0,1-2.36-1.711,2.156,2.156,0,0,0-1.293-.845,3.207,3.207,0,0,0-1.654.447c-.192.089-.379.175-.558.245a13.531,13.531,0,0,1-3.438.883,7.7,7.7,0,0,1-6.393-1.96,5.239,5.239,0,0,1-.862-6.389,5.4,5.4,0,0,1,5.244-2.807,4.8,4.8,0,0,1-.246-.7,6.394,6.394,0,0,0-3.763,1.049,5.869,5.869,0,0,0-2.577,3.979c-.639,3.891,2.39,6.71,5.563,7.388a11.493,11.493,0,0,0,6.378-.666c.14-.051.3-.128.461-.207a3.746,3.746,0,0,1,.912-.351A2.62,2.62,0,0,1,1381.413,767.625Zm.3-1.265a1.847,1.847,0,0,1,.226.014,2.514,2.514,0,0,1,1.533.97,4.7,4.7,0,0,0,2.184,1.6,13.439,13.439,0,0,0,6.024-.076c2.519-.482,4.188-1.47,4.959-2.936s.789-3.566-.689-4.6l-.132-.025.021-.049a.715.715,0,0,1-.282-.871.76.76,0,0,1,.846-.468l.017-.04.092.059a3.679,3.679,0,0,0,3.923-2.879,4.341,4.341,0,0,0-1.8-4.326c-2.054-1.6-5.727-2.131-9.875,1.2a.879.879,0,0,1-.932.072.6.6,0,0,1-.31-.632q.018-.144.028-.283l-.055-.023.059-.047a2.827,2.827,0,0,0-1.018-2.5c-1.668-1.34-4.9-1.054-6.667-.424-1.835.656-3.966,2.338-4.488,4.283a3.188,3.188,0,0,0,.054,1.907.688.688,0,0,1,.47.851c0,.013-.007.026-.011.04q.127.184.28.364a.77.77,0,0,1-.107,1.093.65.65,0,0,1-.958-.073,5.84,5.84,0,0,1-.671-.968,5.023,5.023,0,0,0-5.109,2.584,4.807,4.807,0,0,0,.8,5.924,7.321,7.321,0,0,0,6.074,1.846,13.163,13.163,0,0,0,3.339-.859c.172-.066.351-.149.535-.235A4.064,4.064,0,0,1,1381.716,766.361Zm14.655-5.348a4.688,4.688,0,0,0,.879.04,3.962,3.962,0,0,0-.65-.585Zm.737-.643a4.269,4.269,0,0,1,.61.635,4.3,4.3,0,0,0,3-2.061,5.211,5.211,0,0,0-.217-5.861,6.415,6.415,0,0,0-4.461-2.594,10.955,10.955,0,0,0-7.038,1.945,4.318,4.318,0,0,1,.007.821c2.72-1.97,6.746-3.259,9.867-.823a4.724,4.724,0,0,1,1.942,4.727A4.185,4.185,0,0,1,1397.108,760.369Zm-.86-.067a.367.367,0,0,0-.324.233.317.317,0,0,0,.077.355Zm-21.3-2.616a5.607,5.607,0,0,0,.461.624.267.267,0,0,0,.409.028.378.378,0,0,0,.061-.544q-.108-.127-.2-.257a.7.7,0,0,1-.661.164Zm-.253-.448q.2.035.41.084a.317.317,0,0,0,.346-.114,4.108,4.108,0,0,1-.3-.588,6.532,6.532,0,0,0-.746-.117A4.553,4.553,0,0,0,1374.69,757.238Zm-.388-1.136a6.929,6.929,0,0,1,.7.091,3.593,3.593,0,0,1,0-1.913c.556-2.075,2.8-3.859,4.733-4.55,2.16-.772,5.361-.863,7.042.487a3.111,3.111,0,0,1,1.17,2.489q.313-.243.637-.464a4.564,4.564,0,0,0-2.679-3.348c-2.378-1.089-5.242-.273-6.736.309a7.928,7.928,0,0,0-4.8,4.97A4.39,4.39,0,0,0,1374.3,756.1Zm13.624-2.856c-.005.058-.012.116-.019.175a.218.218,0,0,0,.113.243.488.488,0,0,0,.5-.036l.114-.09Zm.33-.285.373.155a3.894,3.894,0,0,0,0-.43Q1388.441,752.82,1388.255,752.961Z" transform="translate(-1367.174 -747.97)"/></g></g><g transform="translate(1368.535 748.623)"><path class="a" d="M1374,760.13a13.946,13.946,0,0,0-1.525,6.389.545.545,0,0,0,1.066.144l2.266-7.205-1.066-.144q-.019,4.314-.038,8.628a.545.545,0,0,0,1.066.144l1.982-8.7-1.066-.144q-.005,4.925-.01,9.849a.543.543,0,0,0,1.085,0q.536-5.594,1.071-11.189l-1.066.144a53.006,53.006,0,0,1,.5,11.531c-.045.7,1.019.686,1.086,0a157.313,157.313,0,0,1,2.583-16.986l-1.066-.145a65.88,65.88,0,0,1-.923,16.915c-.126.679.9.977,1.047.288l3.847-17.773-1.066-.144-1.248,15.787a.545.545,0,0,0,1.066.144q1.614-8.1,3.228-16.2l-1.066-.144a75.629,75.629,0,0,1-1.966,17.084.543.543,0,0,0,1.047.288q2.141-7.954,3.839-16.015l-1.066-.144q-.565,8.516-1.92,16.947c-.109.676.9.982,1.047.289q1.757-8.431,3.514-16.862l-1.066-.144a159.316,159.316,0,0,1-1.035,18.788l1.066-.144c-.611-2.722.494-5.877,1.014-8.564q.792-4.1,1.584-8.2l-1.066-.144a63.811,63.811,0,0,1-1.281,17.2c-.145.679.875.97,1.047.288q2.143-8.512,3.622-17.167l-1.066-.144q-.547,7.882-1.642,15.71l1.066.144a114.53,114.53,0,0,1,2.931-16.641l-1.066-.144c.478,5.551.906,11.218-.97,16.573l1.066.144.675-16.451h-1.085l-.05,14.608c0,.591.968.764,1.066.144.808-5.127,1.548-10.255,1.977-15.429h-1.086a106.326,106.326,0,0,1-.822,17.166c-.079.622.9.712,1.066.144l2.317-7.968-1.066-.144a37.217,37.217,0,0,1-.145,8.527h1.086a27.758,27.758,0,0,1,1.316-7.121l-.992.129a5.7,5.7,0,0,1,.865,3h1.085q-.017-.985-.035-1.971l-1.066.144a5.419,5.419,0,0,1-.386,3.222l.992.13a52.337,52.337,0,0,1-1.393-11.918l-1.066.144a15.222,15.222,0,0,1,.57,4.138h1.085a45.35,45.35,0,0,1,.109-5.81l-1.011.274a4.858,4.858,0,0,1-.426,4.886h.937a10.65,10.65,0,0,1-1.314-5.138.547.547,0,0,0-1.011-.274,12.068,12.068,0,0,0-1.347,2.932l1.066.144a11.688,11.688,0,0,1,1.125-4l-.992-.129a15.794,15.794,0,0,1,1.085,5.317c.017.586.947.769,1.066.144l1.063-5.55h-1.047a17.9,17.9,0,0,1,.559,6.378h1.085a20.163,20.163,0,0,1,.733-5.222H1400a22.383,22.383,0,0,1,.559,6.143h1.086a22.078,22.078,0,0,1,.69-6.953h-1.047a19.07,19.07,0,0,1,.551,6.578h1.086a16.237,16.237,0,0,1,.3-4.257h-1.047a6.794,6.794,0,0,1,.312,2.379.545.545,0,0,0,1.066.145l.423-1.462-.992.13a2.666,2.666,0,0,1,.554,1.49.548.548,0,0,0,1.011.274l.6-.9c.389-.583-.551-1.126-.937-.548l-.6.9,1.011.274a4.391,4.391,0,0,0-.7-2.038.55.55,0,0,0-.992.13l-.423,1.462,1.066.144a7.635,7.635,0,0,0-.351-2.667c-.15-.481-.933-.551-1.047,0a17.5,17.5,0,0,0-.343,4.546.543.543,0,0,0,1.086,0,19.934,19.934,0,0,0-.59-6.867.547.547,0,0,0-1.047,0,23.035,23.035,0,0,0-.729,7.242.543.543,0,0,0,1.086,0,23.49,23.49,0,0,0-.6-6.431.547.547,0,0,0-1.047,0,21.262,21.262,0,0,0-.772,5.51c-.006.709,1.024.685,1.085,0a18.751,18.751,0,0,0-.6-6.667.547.547,0,0,0-1.047,0l-1.063,5.55,1.066.145a16.675,16.675,0,0,0-1.124-5.605c-.151-.39-.77-.592-.992-.129a13.323,13.323,0,0,0-1.274,4.547c-.062.629.892.706,1.066.144a10.983,10.983,0,0,1,1.238-2.673l-1.011-.274a11.848,11.848,0,0,0,1.462,5.686.549.549,0,0,0,.937,0,5.941,5.941,0,0,0,.426-5.982c-.249-.533-.972-.208-1.011.274a45.35,45.35,0,0,0-.109,5.81.543.543,0,0,0,1.085,0,16.331,16.331,0,0,0-.608-4.426.545.545,0,0,0-1.066.144,53.668,53.668,0,0,0,1.433,12.207.548.548,0,0,0,.992.13,6.709,6.709,0,0,0,.5-4.058c-.107-.609-1.077-.458-1.066.144q.017.986.035,1.971a.543.543,0,0,0,1.085,0,6.856,6.856,0,0,0-1.013-3.545.55.55,0,0,0-.992.129,29.021,29.021,0,0,0-1.355,7.41c-.023.718,1,.671,1.086,0a37.218,37.218,0,0,0,.145-8.527.546.546,0,0,0-1.066-.144l-2.317,7.968,1.066.144a106.34,106.34,0,0,0,.822-17.166.543.543,0,0,0-1.086,0c-.42,5.077-1.145,10.11-1.938,15.141l1.066.144q.025-7.3.05-14.608a.543.543,0,0,0-1.085,0q-.338,8.226-.675,16.451c-.026.64.872.7,1.066.144,1.906-5.44,1.494-11.218,1.009-16.861-.05-.579-.906-.774-1.066-.144a116.486,116.486,0,0,0-2.969,16.929c-.06.6.981.751,1.066.144q1.119-7.969,1.68-16c.042-.6-.963-.75-1.066-.144q-1.478,8.652-3.622,17.167l1.047.288a64.939,64.939,0,0,0,1.32-17.485c-.035-.575-.943-.779-1.066-.144l-1.8,9.289c-.5,2.6-1.4,5.4-.8,8.049.145.644,1,.42,1.066-.144a159.294,159.294,0,0,0,1.035-18.788c0-.6-.938-.758-1.066-.145l-3.514,16.862,1.047.289q1.38-8.57,1.958-17.236a.545.545,0,0,0-1.066-.145q-1.7,8.06-3.839,16.015l1.047.288a76.976,76.976,0,0,0,2-17.372c0-.6-.944-.759-1.066-.144l-3.228,16.2,1.066.144,1.248-15.787a.545.545,0,0,0-1.066-.144q-1.924,8.887-3.847,17.773l1.047.288a67.017,67.017,0,0,0,.962-17.2c-.042-.573-.934-.781-1.066-.144a160.045,160.045,0,0,0-2.622,17.275h1.086a54.315,54.315,0,0,0-.54-11.82c-.1-.648-1.012-.417-1.066.144q-.536,5.595-1.071,11.189h1.085q.005-4.924.01-9.849a.545.545,0,0,0-1.066-.144l-1.982,8.7,1.066.144q.019-4.314.038-8.628a.545.545,0,0,0-1.066-.144l-2.266,7.205,1.066.144a12.725,12.725,0,0,1,1.377-5.841c.313-.622-.623-1.172-.937-.548Z" transform="translate(-1372.244 -750.592)"/><path class="a" d="M1389.485,772.118a.78.78,0,0,1-.178-.021.765.765,0,0,1-.584-.587.846.846,0,0,1-.6.318.648.648,0,0,1-.678-.511l-.059.008.021-.182a15.733,15.733,0,0,1,.512-6.466c.049-.224.1-.447.145-.669q.13-1.869.216-3.742l-1.928,9.3-.035-.01a.646.646,0,0,1-.718.339.793.793,0,0,1-.653-.717l-.027-.007.036-.175q.455-2.825.823-5.688-.628,2.5-1.3,4.982l-.045.195-.029-.008a.7.7,0,0,1-.8.323.731.731,0,0,1-.576-.7l-.026-.007.05-.184c.033-.144.066-.287.1-.431a.73.73,0,0,1-.729.313.7.7,0,0,1-.639-.694l-.016,0,.025-.125.381-4.817-1.573,7.3-.032-.008a.653.653,0,0,1-.739.335.77.77,0,0,1-.634-.714l-.024-.007.039-.177a65.4,65.4,0,0,0,1.055-9.551c-.525,3.269-.948,6.553-1.263,9.821l-.011.179h-.025a.779.779,0,0,1-.813.518.649.649,0,0,1-.612-.518h-.034l.02-.21q.091-1.406.107-2.808l-.225,2.532h-.037a.773.773,0,0,1-.771.522.681.681,0,0,1-.645-.522h-.042l.02-.2,0-3.256-.5,2.2v.141l-.031,0a.69.69,0,0,1-.77.5.734.734,0,0,1-.673-.7l-.023,0,.023-.1.016-3.672-.768,2.445v.11l-.033,0a.736.736,0,0,1-.827.494.7.7,0,0,1-.614-.69l-.041-.005.041-.132a14.055,14.055,0,0,1,1.546-6.363.658.658,0,0,1,.553-.381h.022l.145-.46v-.109l.033,0a.74.74,0,0,1,.831-.494.7.7,0,0,1,.611.69l.041.005-.042.133-.008,1.828.477-2.094v-.142l.032,0a.683.683,0,0,1,.767-.5.816.816,0,0,1,.2.048l.062-.649-.006-.039h.01a.823.823,0,0,1,.8-.707.618.618,0,0,1,.646.512l.052-.007-.02.21q.154,1.013.27,2.028.6-3.785,1.371-7.518l-.013-.174.048.006a.64.64,0,0,1,.7-.509.794.794,0,0,1,.746.7l.021,0-.015.072q.179,2.461.174,4.936l1.267-5.922.015,0a.71.71,0,0,1,.818-.5.684.684,0,0,1,.627.692l.019,0-.03.137-.259,3.277.771-3.874v-.157l.031,0a.667.667,0,0,1,.748-.505.741.741,0,0,1,.7.7l.018,0-.017.088q0,1.584-.071,3.168.232-1.063.456-2.125l.008-.118.017,0a.691.691,0,0,1,.805-.5.7.7,0,0,1,.64.694l.018,0-.026.123q-.028.421-.058.844l.164-.786v-.153l.032,0a.67.67,0,0,1,.75-.5.743.743,0,0,1,.693.7l.02,0-.019.091q0,1.045-.006,2.093L1390,754l-.011-.179.045.006a.64.64,0,0,1,.7-.51.788.788,0,0,1,.747.7l.017,0-.013.068q.122,2.052.114,4.109.386-2.031.734-4.059l.01-.144.016,0a.671.671,0,0,1,.781-.5.847.847,0,0,1,.163.036v-.175h.028a.694.694,0,0,1,.383-.45.658.658,0,0,1,.653-.348.785.785,0,0,1,.724.7l.03,0-.022.086.035.4q.039-.441.076-.884l-.007-.19h.041a.729.729,0,0,1,.738-.523.71.71,0,0,1,.615.366.855.855,0,0,1,.582.5q.268.689.471,1.387l.235-1.228-.023-.084h.039l.025-.13a.666.666,0,0,1,.655-.545.754.754,0,0,1,.771.531l.039.145h.009l0,.02q.079.3.147.594a.75.75,0,0,1,.459-.133.729.729,0,0,1,.437.149q.028-.116.057-.232l-.013-.052h.027l.037-.143a.719.719,0,0,1,.712-.533h0a.719.719,0,0,1,.712.533c.013.048.025.1.037.143h.027l-.014.053q.207.818.344,1.631a.759.759,0,0,1,.5.485c.016.051.031.1.046.151h.007l0,.015q.055.19.1.378a.75.75,0,0,1,.527.341,4.95,4.95,0,0,1,.32.575.732.732,0,0,1,.305-.044.8.8,0,0,1,.659.425.66.66,0,0,1-.059.671l-.469.7.008.075-.05-.013-.089.132a.727.727,0,0,1-.782.327.759.759,0,0,1-.5-.4.769.769,0,0,1-.248.1q-.018.585-.069,1.176l.011.192h-.046a.746.746,0,0,1-1.238.307l0,.068h-.041a.72.72,0,0,1-.7.524h0a.729.729,0,0,1-.712-.524h-.04l.009-.194q-.014-.243-.023-.484a.783.783,0,0,1-.641.279.737.737,0,0,1-.139-.02c0,.041,0,.083,0,.124l.009.2h-.032a.669.669,0,0,1-.326.427q.073.758.167,1.513a.724.724,0,0,1,.44.33,7.526,7.526,0,0,1,.494.97.645.645,0,0,1,.481.486l.026,0,0,.171a7.036,7.036,0,0,1,.037,2.086l0,.132h-.021a7.148,7.148,0,0,1-.424,1.531l.007.029-.017,0q-.054.135-.113.269a.654.654,0,0,1-.686.378.752.752,0,0,1-.675-.541q-.05-.213-.1-.427c-.054.852-.137,1.711-.249,2.58l-.006.179h-.036a.8.8,0,0,1-.814.518.648.648,0,0,1-.6-.518h-.043l.027-.211a22.9,22.9,0,0,1,.259-2.731q.035-.586.051-1.169l-1.033,3.576h-.007a.765.765,0,0,1-.9.481.637.637,0,0,1-.543-.677l-.033,0,.056-.195q.075-.6.143-1.19l0,.005q-.2.735-.449,1.461l0,.085-.025,0a.774.774,0,0,1-.884.485.662.662,0,0,1-.558-.68l-.048-.006.054-.155.219-5.344q-.322,2.8-.713,5.6l-.017.173h-.008a.678.678,0,0,1-.783.5.7.7,0,0,1-.665-.7h0l.009-.067q.048-.474.1-.948-.3,1.25-.612,2.493l-.042.2-.03-.008A.66.66,0,0,1,1389.485,772.118Zm-.358-.612a.382.382,0,0,0,.269.212.331.331,0,0,0,.286-.059Zm-1.3-.241a.249.249,0,0,0,.266.174.437.437,0,0,0,.371-.26Zm1.323-.156.663.183a65.136,65.136,0,0,0,1.179-8.134Q1390.147,767.158,1389.155,771.109Zm7.831-.307a.27.27,0,0,0,.224.13.429.429,0,0,0,.336-.13Zm-8.54-6.74q-.238,3.417-.621,6.81l.611-.083c-.4-2.088.126-4.353.638-6.544l.077-.33q.165-2.389.258-4.784l-.792,4.1Q1388.537,763.644,1388.447,764.063Zm2.609,6.092c.018.173.211.244.32.257.031,0,.284.028.348-.167Zm5.919.258h.677a22.057,22.057,0,0,1,.246-2.45q.045-.729.061-1.453-.118-.6-.223-1.21c-.226.918-.4,1.777-.529,2.6Q1397.132,769.147,1396.975,770.412Zm-2.2-.289a.257.257,0,0,0,.233.242.4.4,0,0,0,.422-.154Zm-1.754-.037a.273.273,0,0,0,.239.244.394.394,0,0,0,.4-.157Zm-1.918-.32.672.091q.289-2.823.723-5.651.344-3.021.607-6.033-.64,3.4-1.385,6.782Q1391.434,767.377,1391.1,769.767Zm3.75-.026.647.088q.233-1.869.4-3.7Zm-1.749-.036.618.084.038-.941a.815.815,0,0,1-.326-.212Q1393.282,769.172,1393.1,769.7Zm-3.564-5.731q-.2,2.825-.489,5.634a63.505,63.505,0,0,0,.964-7.892l-.138.713C1389.777,762.931,1389.662,763.442,1389.538,763.974Zm-4.169,5.319a.432.432,0,0,0,.3.216.282.282,0,0,0,.252-.064Zm-7.416.03a.289.289,0,0,0,.233.13.422.422,0,0,0,.342-.13Zm1.666-.149a.416.416,0,0,0,.288.215.3.3,0,0,0,.267-.062Zm9.308-2.39a13.721,13.721,0,0,0-.243,2.552Q1388.817,768.062,1388.928,766.783Zm-1.129.492a14.41,14.41,0,0,0-.174,1.814Q1387.717,768.183,1387.8,767.275Zm-2.427,1.614.66.182c.5-3.108.917-6.243,1.256-9.376Zm-9-.053a.308.308,0,0,0,.248.132.38.38,0,0,0,.316-.132Zm3.257-.064.664.183a67.48,67.48,0,0,0,.951-7.643Zm-1.694.161h.687a53.528,53.528,0,0,0,.023-6.065Q1378.235,765.9,1377.938,768.933Zm20.784-.716.039.164a.368.368,0,0,0,.331.243.277.277,0,0,0,.293-.147c.024-.055.048-.109.07-.164Zm-5.457-4.289-.185,4.521q.092-.329.172-.66Zm-16.92,4.519h.676l.007-7.137Zm7.1-.237a.377.377,0,0,0,.258.21.344.344,0,0,0,.3-.056Zm.038-.394.664.183a77.07,77.07,0,0,0,1.471-8.629C1384.946,762.2,1384.232,765.024,1383.483,767.815Zm10.705.109.145.02.005-.022.014-3.994Zm4.716-.076.46.06q-.076-.329-.147-.66a.709.709,0,0,1-.1-.059A5.822,5.822,0,0,1,1398.9,767.848Zm-2.453-3.61q-.136,1.8-.334,3.639l.761-2.62q-.013-1.088-.091-2.177Zm-2.762,3.619.11.015.037-.9-.034.161Zm-19.327-.29a.358.358,0,0,0,.32.257.316.316,0,0,0,.333-.169Zm21.036-3.775q-.135,1.9-.34,3.84l1.007-3.464c.151-2.017.243-4.005.277-5.98q-.075-.246-.139-.495C1395.964,759.76,1395.689,761.8,1395.4,763.792Zm4.236,3.538c.022.1.044.2.067.3q.05-.163.09-.326A.806.806,0,0,1,1399.634,767.33Zm-1.175-.31q.061.289.123.577a5.253,5.253,0,0,0,.251-.928v-.053h0v-.024a6.043,6.043,0,0,0-.081-.895C1398.647,766.126,1398.548,766.567,1398.459,767.02Zm-16.282.126c.024.21.271.251.3.255s.279.033.361-.165Zm-7.76.035.635.086.013-2.928Zm25.134-.24h.036a.34.34,0,0,0,.279-.134h-.344Zm-17.318-.181.656.089.443-5.608Zm17.21-.342h.47a6.81,6.81,0,0,0-.23-1.525l-.446.06a5.982,5.982,0,0,1,.06.708Q1399.367,766.04,1399.443,766.418Zm-27.309-.274a.317.317,0,0,0,.277.251.354.354,0,0,0,.367-.164Zm19.414-5.649q-.106,2.7-.436,5.389l.134-.6q.09-.635.187-1.269.338-2.986.6-6Q1391.8,759.254,1391.549,760.494Zm-19.342,5.266.617.083a12.814,12.814,0,0,1,1.171-5.237l0-.54Zm3.255-3.166-.014,3.188.494-2.169,0-3.14Zm15.04-3.411a64.251,64.251,0,0,1-.455,6.5q.587-2.608,1.114-5.232.092-2.363.01-4.726Zm7.831,5.164q.024.659.025,1.319.094-.391.195-.767A5.485,5.485,0,0,0,1398.333,764.348Zm-23.956-1.871-.014,3.184.71-3.112.01-2.315Zm20.376-1.861-.017,4.981q.106-.7.21-1.4a42.882,42.882,0,0,0,.108-5.958Q1394.91,759.433,1394.753,760.616Zm-1.082-.888-.02,5.833q.109-.719.217-1.446a41.161,41.161,0,0,0,.1-5.882Q1393.816,758.98,1393.67,759.728Zm3.6,5.583c0,.082,0,.164,0,.245q.139-.589.307-1.21l-.01-.063Zm-18.359-4.289q.159,1.84.193,3.678c.334-2.664.737-5.329,1.207-7.979q0-1.637-.089-3.277Q1379.478,757.2,1378.911,761.022Zm-.95,1.893q.044.871.06,1.745.228-1.827.5-3.65-.081-.94-.2-1.879Zm-3.971-1.279a12.287,12.287,0,0,0-.705,3.014l.7-2.232Zm25.5,2.676a.353.353,0,0,0-.3.254l.372-.051Q1399.532,764.412,1399.493,764.311Zm-22.074-3.51,0,3.715.154-1.61Q1377.516,761.85,1377.42,760.8Zm-1.088,2.856v.859l.142-1.475Zm-2.613-4.006a.339.339,0,0,0-.088.114h0a13.718,13.718,0,0,0-1.412,4.655Zm24.759,4.12c.055.1.107.2.155.3-.016-.1-.032-.209-.047-.313Zm-1.362-1.465q.079.867.119,1.73l.2-.687q-.069-.508-.128-1.018Zm2.153,1.481-.061.21a.837.837,0,0,1,.135-.051C1399.318,763.893,1399.294,763.841,1399.269,763.788Zm-15.288-5.8-.465,5.88,1.141-5.728q.252-2.584.326-5.184Zm-2.229,1q-.075,2.376-.318,4.75l.971-4.487.409-5.171Zm1.04.32-.348,4.409,1.151-5.779.292-3.685Zm-2.09-2.546a66.413,66.413,0,0,1-.332,6.77l.994-4.591q.084-2.711-.053-5.415Q1380.989,755.131,1380.7,756.754Zm17.578,6.551.006.1.245-.032c-.015-.112-.031-.223-.045-.335a.341.341,0,0,0-.191.217Zm.609-.2.029.211.1-.013c-.026-.046-.054-.093-.082-.139A.37.37,0,0,0,1398.888,763.109Zm-10.858-6.977q-.312,3.518-.759,7.042l1.1-5.255q.059-1.877.073-3.752Zm-1.488,4.039q-.153,1.381-.327,2.758l1.428-6.855q.049-.556.095-1.111Q1387.165,757.567,1386.542,760.171Zm11.645,1.986c.018.19.035.379.05.569a.733.733,0,0,1,.2-.086q-.088-.709-.157-1.42a.737.737,0,0,1-.689-.448c-.018-.01-.036-.021-.053-.032q.028.319.06.638a.783.783,0,0,1,.582.679l.037.005Zm-1.477-2.937q-.044,1.595-.138,3.206l.123-.421-.015-.15.056.008a.7.7,0,0,1,.467-.481q-.065-.659-.114-1.319Q1396.883,759.644,1396.71,759.22Zm-10.436-2.678q-.216,2.876-.646,5.735.268-1.085.529-2.173.294-2.656.511-5.32Q1386.474,755.663,1386.274,756.542Zm-1.231,1.651q-.189,1.933-.476,3.853.686-2.774,1.32-5.562.128-1.71.179-3.423Zm12.615,3.794.109.014a.391.391,0,0,0-.126-.173C1397.647,761.881,1397.653,761.933,1397.659,761.987Zm-.526-.071.127.017c-.005-.049-.011-.1-.016-.146A.3.3,0,0,0,1397.133,761.915Zm-20.8-2.9,0,2.879.428-1.88.089-.93Zm13.539-2.292q-.054,2.27-.172,4.541l.41-2.122q.033-1.746-.03-3.5Zm-15.491,3.97,0,.466.626-1.991-.617-.083v.325a.814.814,0,0,1,.141.163.725.725,0,0,1,.037.741Q1374.473,760.5,1374.384,760.693Zm14.371-2.728q-.051,1.589-.132,3.178l.863-4.463q.029-1.2.039-2.407Zm11.514,2.826a.355.355,0,0,0,.287.134.338.338,0,0,0,.276-.134Zm-22.824-3.028q.212,1.406.347,2.829l.279-2.913Zm24.1,2.654a.324.324,0,0,0,.267.134.333.333,0,0,0,.288-.134Zm-1.336-.015h.677c-.036-.74-.038-1.47,0-2.193a23.523,23.523,0,0,0-.363-2.976,22.393,22.393,0,0,0-.333,2.941C1400.23,758.908,1400.237,759.649,1400.21,760.4Zm-2.288-.1h.275c-.007-.087-.014-.173-.021-.26h-.26C1397.919,760.132,1397.92,760.219,1397.922,760.307Zm3.577-.28h.668q-.023-.52-.016-1.03a.67.67,0,0,1-.4-.63l-.035,0,.039-.137a6.621,6.621,0,0,0-.116-1.45q-.058.4-.1.789A19.809,19.809,0,0,1,1401.5,760.027Zm-2.5-.074a.356.356,0,0,0,.167.051.383.383,0,0,0,.318-.133H1399Zm-1.1-.3h.2q-.063-.125-.123-.25c-.026.051-.054.1-.082.151C1397.9,759.59,1397.9,759.624,1397.9,759.656Zm1.248-.175h.421c.009-.477.033-.949.074-1.417q0-.292-.006-.583A6.027,6.027,0,0,1,1399.148,759.481Zm-3.5-1.352q-.01.557-.025,1.117.075-.6.147-1.2A.742.742,0,0,1,1395.648,758.13Zm1.763.855c.016.009.032.017.048.024-.007-.067-.014-.134-.021-.2l-.037-.005C1397.405,758.863,1397.408,758.924,1397.412,758.984Zm5.774-.379c0,.009,0,.018,0,.027a.391.391,0,0,0,.288.343.335.335,0,0,0,.366-.165l.016-.023Zm-4.723-.35c.01.241.022.482.035.722,0-.109.01-.219.015-.328Q1398.491,758.452,1398.463,758.255Zm.5-.43q-.007.524,0,1.048a5.651,5.651,0,0,0,.226-2.69Q1399.045,757,1398.966,757.826Zm-6.264-3.381q-.153,2.174-.348,4.347.414-2.072.9-4.119l.006-.152Zm-18.265,4.252.643.087a.313.313,0,0,0-.274-.25A.355.355,0,0,0,1374.438,758.7Zm1.934-.071.516.07.015-.161a.419.419,0,0,0-.2-.078A.307.307,0,0,0,1376.372,758.626Zm20.362-.494c.03.1.062.2.1.294q-.025-.536-.086-1.062Q1396.74,757.747,1396.734,758.132Zm6.646.122.466.126a4.649,4.649,0,0,0-.139-.616Zm.629-.816a4.715,4.715,0,0,1,.21.808l.222-.333a.268.268,0,0,0,.033-.282.413.413,0,0,0-.334-.209A.35.35,0,0,0,1404.01,757.438Zm-6.132.706.027.076c-.007-.12-.015-.239-.024-.358Q1397.879,758,1397.878,758.144Zm4.765-.05.061.008c-.019-.067-.041-.132-.065-.2C1402.64,757.968,1402.641,758.031,1402.643,758.094Zm-8.959-2.234-.006,1.878q.1-.49.212-.979c-.04-.617-.087-1.228-.136-1.832Q1393.72,755.393,1393.684,755.86Zm-15.853,1.251h-.011a.461.461,0,0,0-.4.261l.643-.087A.222.222,0,0,0,1377.83,757.111Zm17.828-1.5q.007.772,0,1.547a12.019,12.019,0,0,1,.228-1.266c-.021-.21-.036-.422-.046-.635Q1395.747,755.436,1395.659,755.614Zm-8.415-3.312q-.163,2.41-.389,4.822.541-2.368,1.041-4.734Zm3.166,1.973q.08,1.41.1,2.82l.528-2.735Zm11.481,1.884a7.088,7.088,0,0,1,.19.926l.016-.054-.019-.025.027,0,.076-.263q-.026-.29-.061-.581Zm.844.578c-.01.062-.019.124-.028.186l.057-.008C1402.754,756.857,1402.744,756.8,1402.734,756.738Zm.373-.132c.016.087.03.174.042.261l.146-.019c-.027-.045-.054-.089-.083-.134A.363.363,0,0,0,1403.107,756.605Zm-19.7-5.1-.387,4.893,1.04-4.8Zm13.445,4.17q.051.229.1.46a.744.744,0,0,1,.038-.165q-.026-.227-.042-.457C1396.913,755.566,1396.883,755.62,1396.853,755.674Zm-2.08-1,0,1.313q.053-.249.114-.5-.037-.482-.076-.954Zm5.109.933q.031.173.059.346.118-.6.273-1.2c.007-.032.013-.065.02-.1h-.5Q1399.821,755.126,1399.882,755.6Zm-1.7-.509a5.17,5.17,0,0,1,.239.716q-.047-.376-.112-.751Zm-9.347-2.56q0,1.629-.025,3.262l.662-3.176Zm12.976,3.235h.26q-.019-.138-.041-.276a.266.266,0,0,0-.208.222Zm-2.433-.517q.078.257.133.515l-.013-.107q-.046-.255-.1-.509Zm-2.07-.331c0,.22.016.438.034.654a.726.726,0,0,1,.094-.039l.046-.239q-.086-.36-.189-.717a.76.76,0,0,1,.012.131q0,.074,0,.147l.035.01Zm-3.26-1.167q.072.839.14,1.7.073-.315.148-.629l.044-1.07Zm7.767.572q-.113.486-.2.972a.655.655,0,0,1,.355-.191Q1401.9,754.717,1401.814,754.327Zm-.827-.488q.155.622.267,1.244.12-.622.276-1.244Zm-15.583-2.748q-.007,1.936-.114,3.869l.754-3.782Zm10.236,3.246c0,.156.006.311.009.467q.086-.151.178-.3v-.047l.025.007.081-.13a.755.755,0,0,1,.105-.132q-.078-.233-.164-.466Q1395.749,754.035,1395.64,754.337Zm-15.1-2.115q.089,1.278.13,2.557.236-1.24.491-2.473Zm16.195,2.48.181.049v-.039a.314.314,0,0,0-.158-.284l-.026.067C1396.73,754.566,1396.731,754.634,1396.733,754.7Zm1.457-.268a.4.4,0,0,0-.158.272l0,.024.208-.056Q1398.214,754.555,1398.189,754.435Zm.939.132.007.017q.037-.145.075-.289l-.008-.036h.018l.024-.089c-.009-.04-.017-.081-.026-.121Zm-.552-.189c.013.065.026.13.039.195l.08-.022-.024-.051A.3.3,0,0,0,1398.576,754.378Zm-1.671-.311a.7.7,0,0,1,.342.361q-.1-.328-.21-.655Q1396.968,753.92,1396.9,754.067Zm2.756.193h.656l-.011-.05a.309.309,0,0,0-.31-.237.334.334,0,0,0-.349.214Zm-6.913-.2.53.072.007-.171a.47.47,0,0,0-.193-.068C1393.043,753.884,1392.817,753.868,1392.748,754.058Zm5.734-.109a.614.614,0,0,1,.335.123l.111-.579h-.558Q1398.429,753.721,1398.482,753.949Zm-8.054-.064.646.088a.421.421,0,0,0-.366-.261A.259.259,0,0,0,1390.428,753.884Zm10.485-.436h.692l-.011-.044a.328.328,0,0,0-.335-.242h0a.329.329,0,0,0-.335.242Zm-5.307-.371c0,.091.006.181.009.272l.06-.134-.025-.064.052.007.037-.08Zm1.092.21.171.022-.054-.142a.417.417,0,0,0-.126-.167C1396.692,753.1,1396.695,753.192,1396.7,753.288Zm-.593-.077.159.021c0-.051.009-.1.013-.154h-.109Zm2.192-.108h.689l-.011-.042a.362.362,0,0,0-.38-.244.282.282,0,0,0-.287.229Zm-2.622-.415h.292a.6.6,0,0,1,.141-.105.364.364,0,0,0-.135-.029A.376.376,0,0,0,1395.675,752.687Zm-6.809-.542.653.088a.369.369,0,0,0-.334-.258A.3.3,0,0,0,1388.866,752.145Zm-1.574-.23.659.089a.367.367,0,0,0-.659-.089Zm-6.74-.084.644.087a.424.424,0,0,0-.364-.261A.253.253,0,0,0,1380.553,751.831Zm2.907-.714.66.089a.315.315,0,0,0-.292-.253A.34.34,0,0,0,1383.46,751.117Zm1.977-.415.654.089a.369.369,0,0,0-.336-.259A.294.294,0,0,0,1385.437,750.7Z" transform="translate(-1371.696 -750.14)"/></g></g><g transform="translate(-245.384 -375.716)"><g transform="translate(1367.174 747.97)"><g transform="translate(0 0)"><path class="a" d="M1372.284,753.514c-1.387-1.635.424-3.459,1.951-4,1.475-.527,4.377-.5,4.086,1.8-.034.271.315.329.479.2,1.459-1.17,3.6-1.89,5.224-.618a2.334,2.334,0,0,1,.967,2.337,1.989,1.989,0,0,1-2.192,1.553.282.282,0,0,0-.216.512,1.923,1.923,0,0,1,.439,2.537,3.6,3.6,0,0,1-2.631,1.568,6.961,6.961,0,0,1-3.159.036,2.534,2.534,0,0,1-1.173-.855,1.2,1.2,0,0,0-.73-.469,2.647,2.647,0,0,0-1.191.363,6.96,6.96,0,0,1-1.75.45,3.925,3.925,0,0,1-3.219-.983,2.709,2.709,0,0,1,2.616-4.506c.35.085.5-.456.149-.541a3.284,3.284,0,0,0-4.074,2.585,3.53,3.53,0,0,0,2.951,3.93,6.1,6.1,0,0,0,3.349-.348,4.737,4.737,0,0,1,.692-.283.945.945,0,0,1,.987.413,2.585,2.585,0,0,0,1.044.717,6.442,6.442,0,0,0,3.019.129,5.733,5.733,0,0,0,2.751-.963c1.326-.993,1.777-3.264.213-4.266l-.216.512c2.38.451,3.709-2.452,2.355-4.235-1.7-2.236-4.712-1.49-6.6.025l.478.2a2.388,2.388,0,0,0-1.452-2.417,4.7,4.7,0,0,0-3.557.157c-1.892.737-3.576,2.985-1.984,4.862.234.275.629-.123.4-.4Z" transform="translate(-1367.714 -748.506)"/><path class="a" d="M1377.892,759.716a4.533,4.533,0,0,1-1.586-.25,2.694,2.694,0,0,1-1.083-.744.846.846,0,0,0-.9-.381,1.81,1.81,0,0,0-.418.164c-.091.044-.177.085-.256.115a6.126,6.126,0,0,1-3.405.352,3.621,3.621,0,0,1-3.029-4.045,3.229,3.229,0,0,1,1.418-2.19,3.514,3.514,0,0,1,2.01-.577,2.475,2.475,0,0,1,.045-1.035,4.3,4.3,0,0,1,2.6-2.7,4.9,4.9,0,0,1,3.635-.155,2.569,2.569,0,0,1,1.482,1.791,5.731,5.731,0,0,1,3.693-.984,3.506,3.506,0,0,1,2.439,1.417,2.894,2.894,0,0,1,.123,3.255,2.426,2.426,0,0,1-1.593,1.141,2.311,2.311,0,0,1,.341,1.15,3.177,3.177,0,0,1-1.243,2.584,5.921,5.921,0,0,1-2.8.983A11.711,11.711,0,0,1,1377.892,759.716Zm-3.365-1.6a1.079,1.079,0,0,1,.846.466,2.5,2.5,0,0,0,1,.69,6.371,6.371,0,0,0,2.971.124,5.735,5.735,0,0,0,2.7-.944,3.011,3.011,0,0,0,1.162-2.416,2.093,2.093,0,0,0-.359-1.124,2.547,2.547,0,0,1-.452.007,2.14,2.14,0,0,1,.167,2.416,3.594,3.594,0,0,1-2.7,1.62,7.119,7.119,0,0,1-3.207.034,2.624,2.624,0,0,1-1.219-.884,1.114,1.114,0,0,0-.668-.436,1.656,1.656,0,0,0-.854.231c-.1.046-.2.091-.288.126a6.986,6.986,0,0,1-1.775.456,3.978,3.978,0,0,1-3.3-1.012,2.705,2.705,0,0,1-.445-3.3,2.79,2.79,0,0,1,2.708-1.45,2.473,2.473,0,0,1-.127-.364,3.3,3.3,0,0,0-1.943.542,3.031,3.031,0,0,0-1.331,2.055,3.439,3.439,0,0,0,2.873,3.815,5.935,5.935,0,0,0,3.294-.344c.072-.026.154-.066.238-.107a1.932,1.932,0,0,1,.471-.181A1.351,1.351,0,0,1,1374.527,758.12Zm.157-.653a.955.955,0,0,1,.117.007,1.3,1.3,0,0,1,.792.5,2.425,2.425,0,0,0,1.128.826,6.94,6.94,0,0,0,3.111-.039,3.41,3.41,0,0,0,2.561-1.516,1.841,1.841,0,0,0-.356-2.373l-.068-.013.011-.025a.369.369,0,0,1-.146-.45.393.393,0,0,1,.437-.241l.009-.021.048.031a1.9,1.9,0,0,0,2.026-1.487,2.242,2.242,0,0,0-.931-2.234c-1.061-.828-2.957-1.1-5.1.617a.454.454,0,0,1-.481.037.312.312,0,0,1-.16-.326c.006-.05.011-.1.014-.146l-.028-.012.03-.024a1.46,1.46,0,0,0-.526-1.291,4.085,4.085,0,0,0-3.443-.219,3.779,3.779,0,0,0-2.318,2.212,1.646,1.646,0,0,0,.028.984.355.355,0,0,1,.243.439l-.005.021q.066.095.144.188a.4.4,0,0,1-.055.564.336.336,0,0,1-.495-.038,3.015,3.015,0,0,1-.347-.5,2.594,2.594,0,0,0-2.638,1.334,2.483,2.483,0,0,0,.413,3.059,3.78,3.78,0,0,0,3.136.953,6.8,6.8,0,0,0,1.724-.444c.089-.034.181-.077.276-.121A2.1,2.1,0,0,1,1374.683,757.467Zm7.568-2.762a2.418,2.418,0,0,0,.454.021,2.057,2.057,0,0,0-.335-.3Zm.38-.332a2.207,2.207,0,0,1,.315.328,2.222,2.222,0,0,0,1.55-1.064,2.691,2.691,0,0,0-.112-3.027,3.313,3.313,0,0,0-2.3-1.34,5.657,5.657,0,0,0-3.634,1,2.245,2.245,0,0,1,0,.424c1.4-1.017,3.483-1.683,5.1-.425a2.439,2.439,0,0,1,1,2.441A2.161,2.161,0,0,1,1382.631,754.373Zm-.444-.035a.189.189,0,0,0-.167.12.163.163,0,0,0,.04.183Zm-11-1.351a2.879,2.879,0,0,0,.238.322.138.138,0,0,0,.211.015.2.2,0,0,0,.032-.281q-.056-.066-.106-.133a.361.361,0,0,1-.341.085Zm-.131-.231q.106.018.212.044a.164.164,0,0,0,.179-.059,2.127,2.127,0,0,1-.155-.3,3.378,3.378,0,0,0-.385-.061A2.34,2.34,0,0,0,1371.055,752.756Zm-.2-.586a3.579,3.579,0,0,1,.36.047,1.853,1.853,0,0,1,0-.988,3.991,3.991,0,0,1,2.444-2.35,4.194,4.194,0,0,1,3.637.251,1.606,1.606,0,0,1,.6,1.285q.162-.125.329-.24a2.357,2.357,0,0,0-1.383-1.729,4.709,4.709,0,0,0-3.479.16,4.094,4.094,0,0,0-2.48,2.567A2.265,2.265,0,0,0,1370.855,752.17Zm7.035-1.475c0,.03-.006.06-.01.09a.113.113,0,0,0,.059.125.252.252,0,0,0,.257-.018l.059-.047Zm.17-.147.193.08a1.986,1.986,0,0,0,0-.222Q1378.156,750.475,1378.06,750.548Z" transform="translate(-1367.174 -747.97)"/></g></g><g transform="translate(1367.877 748.307)"><path class="a" d="M1373.267,755.612a7.2,7.2,0,0,0-.787,3.3.282.282,0,0,0,.55.075l1.17-3.721-.551-.075-.02,4.456a.282.282,0,0,0,.551.074l1.023-4.491-.55-.074q0,2.543-.005,5.086a.28.28,0,0,0,.561,0l.553-5.778-.551.074a27.374,27.374,0,0,1,.259,5.955c-.024.363.526.354.561,0a81.238,81.238,0,0,1,1.334-8.772l-.551-.075a34.023,34.023,0,0,1-.477,8.735c-.065.35.463.5.54.149l1.986-9.178-.551-.075q-.322,4.076-.645,8.152a.282.282,0,0,0,.551.074l1.667-8.366-.55-.074a39.043,39.043,0,0,1-1.015,8.822.281.281,0,0,0,.541.149q1.106-4.107,1.982-8.27l-.551-.074q-.292,4.4-.991,8.752c-.056.349.466.507.541.149l1.815-8.707-.551-.074a82.267,82.267,0,0,1-.534,9.7l.551-.075c-.315-1.405.255-3.035.523-4.423l.818-4.232-.551-.074a32.952,32.952,0,0,1-.662,8.88c-.075.35.452.5.54.149q1.107-4.4,1.87-8.865l-.551-.075q-.282,4.07-.848,8.112l.551.074a59.151,59.151,0,0,1,1.513-8.593l-.551-.075c.247,2.867.468,5.793-.5,8.558l.551.075.349-8.5h-.561L1383.59,760c0,.305.5.395.551.074.417-2.647.8-5.3,1.021-7.968h-.561a54.9,54.9,0,0,1-.425,8.864c-.041.321.465.368.55.074l1.2-4.115-.55-.074a19.228,19.228,0,0,1-.075,4.4h.561a14.337,14.337,0,0,1,.679-3.677l-.512.067a2.943,2.943,0,0,1,.446,1.548h.561q-.009-.509-.018-1.018l-.55.074a2.8,2.8,0,0,1-.2,1.664l.512.067a27.021,27.021,0,0,1-.72-6.155l-.551.074a7.854,7.854,0,0,1,.294,2.137h.561a23.416,23.416,0,0,1,.056-3l-.522.141a2.508,2.508,0,0,1-.22,2.523h.484a5.5,5.5,0,0,1-.678-2.653.283.283,0,0,0-.522-.141,6.233,6.233,0,0,0-.7,1.514l.551.074a6.035,6.035,0,0,1,.581-2.065l-.512-.067a8.156,8.156,0,0,1,.56,2.745c.009.3.489.4.551.074l.549-2.866H1386a9.242,9.242,0,0,1,.289,3.294h.56a10.414,10.414,0,0,1,.379-2.7h-.541a11.552,11.552,0,0,1,.289,3.172h.561a11.405,11.405,0,0,1,.356-3.591h-.54a9.846,9.846,0,0,1,.284,3.4h.561a8.384,8.384,0,0,1,.157-2.2h-.541a3.51,3.51,0,0,1,.161,1.228.281.281,0,0,0,.55.075l.218-.755-.512.067a1.377,1.377,0,0,1,.286.769.283.283,0,0,0,.522.141l.309-.463c.2-.3-.284-.582-.484-.283l-.309.463.522.141a2.268,2.268,0,0,0-.363-1.052.284.284,0,0,0-.512.067l-.218.755.551.075a3.942,3.942,0,0,0-.181-1.377c-.077-.248-.482-.284-.541,0a9.043,9.043,0,0,0-.177,2.347.281.281,0,0,0,.561,0,10.294,10.294,0,0,0-.3-3.546.282.282,0,0,0-.54,0,11.9,11.9,0,0,0-.377,3.74.281.281,0,0,0,.561,0,12.13,12.13,0,0,0-.309-3.321.283.283,0,0,0-.541,0,10.983,10.983,0,0,0-.4,2.845c0,.366.529.354.56,0a9.68,9.68,0,0,0-.309-3.443.282.282,0,0,0-.54,0l-.549,2.866.55.075a8.616,8.616,0,0,0-.58-2.895c-.078-.2-.4-.306-.512-.067a6.881,6.881,0,0,0-.658,2.348c-.032.325.461.365.551.074a5.669,5.669,0,0,1,.639-1.38l-.522-.141a6.118,6.118,0,0,0,.755,2.936.284.284,0,0,0,.484,0,3.068,3.068,0,0,0,.22-3.089c-.128-.275-.5-.107-.522.141a23.416,23.416,0,0,0-.056,3,.28.28,0,0,0,.561,0,8.43,8.43,0,0,0-.314-2.286.282.282,0,0,0-.551.074,27.707,27.707,0,0,0,.74,6.3.283.283,0,0,0,.512.067,3.465,3.465,0,0,0,.256-2.1c-.055-.314-.556-.237-.55.074q.009.509.018,1.018a.28.28,0,0,0,.561,0,3.541,3.541,0,0,0-.523-1.831.284.284,0,0,0-.512.067,14.976,14.976,0,0,0-.7,3.827c-.012.371.516.346.561,0a19.221,19.221,0,0,0,.075-4.4.282.282,0,0,0-.551-.074l-1.2,4.115.551.074a54.9,54.9,0,0,0,.425-8.864.28.28,0,0,0-.561,0c-.217,2.622-.591,5.221-1,7.819l.551.074q.013-3.772.026-7.544a.28.28,0,0,0-.561,0q-.174,4.248-.349,8.5c-.014.331.45.36.551.074.984-2.809.772-5.793.521-8.707-.026-.3-.468-.4-.55-.074a60.119,60.119,0,0,0-1.533,8.742c-.031.311.506.388.551.075q.578-4.115.868-8.261c.022-.311-.5-.387-.551-.074q-.763,4.468-1.87,8.865l.54.149a33.533,33.533,0,0,0,.682-9.029c-.018-.3-.487-.4-.551-.074l-.927,4.8a10.383,10.383,0,0,0-.415,4.156c.075.332.517.217.551-.074a82.27,82.27,0,0,0,.534-9.7c0-.308-.485-.392-.551-.075l-1.815,8.707.541.149q.713-4.426,1.011-8.9a.281.281,0,0,0-.55-.075q-.876,4.162-1.982,8.27l.541.149a39.752,39.752,0,0,0,1.035-8.971c0-.307-.487-.392-.551-.075l-1.667,8.366.551.074q.322-4.076.645-8.152a.282.282,0,0,0-.551-.074q-.993,4.589-1.986,9.178l.54.149a34.611,34.611,0,0,0,.5-8.884c-.022-.3-.482-.4-.551-.074a82.63,82.63,0,0,0-1.354,8.921h.561a28.06,28.06,0,0,0-.279-6.1c-.052-.334-.523-.215-.55.074l-.553,5.778h.561l.005-5.086a.282.282,0,0,0-.551-.075l-1.024,4.491.551.075.02-4.456a.282.282,0,0,0-.55-.074l-1.17,3.721.55.074a6.568,6.568,0,0,1,.711-3.016c.162-.321-.322-.605-.484-.283Z" transform="translate(-1372.358 -750.687)"/><path class="a" d="M1380.882,761.489a.4.4,0,0,1-.092-.011.4.4,0,0,1-.3-.3.437.437,0,0,1-.312.164.335.335,0,0,1-.35-.264l-.03,0,.011-.094a8.125,8.125,0,0,1,.264-3.339c.025-.116.051-.231.075-.346q.067-.965.112-1.933l-1,4.8-.018-.005a.333.333,0,0,1-.371.175.41.41,0,0,1-.337-.37l-.014,0,.019-.09q.235-1.459.425-2.937-.324,1.293-.669,2.573l-.023.1-.015,0a.363.363,0,0,1-.412.167.378.378,0,0,1-.3-.363l-.014,0,.026-.095.051-.223a.377.377,0,0,1-.377.162.361.361,0,0,1-.33-.358h-.008l.013-.065.2-2.487-.812,3.768-.016,0a.337.337,0,0,1-.382.173.4.4,0,0,1-.327-.369l-.012,0,.02-.092a33.776,33.776,0,0,0,.545-4.932c-.271,1.688-.49,3.384-.652,5.072l-.006.093h-.013a.4.4,0,0,1-.42.268.335.335,0,0,1-.316-.268h-.017l.01-.109q.047-.726.055-1.45l-.116,1.307h-.019a.4.4,0,0,1-.4.269.352.352,0,0,1-.333-.269h-.021l.01-.106v-1.681l-.258,1.134v.073l-.016,0a.356.356,0,0,1-.4.26.379.379,0,0,1-.348-.36l-.012,0,.012-.053.008-1.9-.4,1.262v.057l-.017,0a.38.38,0,0,1-.427.255.363.363,0,0,1-.317-.356l-.021,0,.021-.068a7.258,7.258,0,0,1,.8-3.286.34.34,0,0,1,.286-.2h.011l.075-.238v-.056l.017,0a.382.382,0,0,1,.429-.255.362.362,0,0,1,.315.356l.021,0-.021.069,0,.944.246-1.081v-.073l.016,0a.352.352,0,0,1,.4-.26.423.423,0,0,1,.1.025l.032-.335,0-.02h.005a.425.425,0,0,1,.412-.365.319.319,0,0,1,.333.264l.027,0-.01.108q.079.523.139,1.047c.206-1.3.442-2.6.708-3.882l-.007-.09.025,0a.331.331,0,0,1,.359-.263.41.41,0,0,1,.385.364h.01l-.008.037q.092,1.271.09,2.549l.655-3.058h.008a.367.367,0,0,1,.423-.257.353.353,0,0,1,.324.357h.01l-.015.071-.134,1.692.4-2V750.4l.016,0a.344.344,0,0,1,.386-.261.383.383,0,0,1,.359.362h.009l-.009.045q0,.818-.037,1.636.12-.549.236-1.1l0-.061h.009a.357.357,0,0,1,.416-.257.363.363,0,0,1,.331.358h.009l-.013.064q-.015.218-.03.436l.085-.406v-.079l.017,0a.346.346,0,0,1,.387-.261.384.384,0,0,1,.358.362h.01l-.01.047q0,.54,0,1.081l.047-.242-.005-.093.023,0a.331.331,0,0,1,.36-.263.407.407,0,0,1,.385.364h.009l-.007.035q.063,1.06.059,2.122.2-1.049.379-2.1l.005-.075h.008a.347.347,0,0,1,.4-.259.437.437,0,0,1,.084.019v-.09h.014a.358.358,0,0,1,.2-.232.34.34,0,0,1,.337-.18.405.405,0,0,1,.374.363l.015,0-.011.044.018.208q.02-.228.039-.456l0-.1h.021a.377.377,0,0,1,.381-.27.367.367,0,0,1,.317.189.441.441,0,0,1,.3.257q.138.356.243.716l.121-.634-.012-.043h.02l.013-.067a.343.343,0,0,1,.338-.282.389.389,0,0,1,.4.274l.02.075h0l0,.01q.04.154.076.307a.387.387,0,0,1,.237-.069.377.377,0,0,1,.226.077c.01-.04.02-.08.03-.12l-.007-.027h.014l.019-.074a.372.372,0,0,1,.368-.275h0a.372.372,0,0,1,.367.275l.019.074h.014l-.007.027q.107.422.178.842a.392.392,0,0,1,.257.251l.024.078h0v.008c.019.065.036.13.052.2a.387.387,0,0,1,.272.176,2.557,2.557,0,0,1,.165.3.378.378,0,0,1,.158-.023.412.412,0,0,1,.34.22.341.341,0,0,1-.03.347l-.242.363,0,.039-.026-.007-.046.068a.376.376,0,0,1-.4.169.392.392,0,0,1-.259-.207.4.4,0,0,1-.128.05q-.009.3-.036.607l.005.1h-.024a.385.385,0,0,1-.639.158l0,.035h-.021a.372.372,0,0,1-.361.271h0a.376.376,0,0,1-.367-.271h-.021l0-.1q-.007-.125-.012-.25a.4.4,0,0,1-.331.144.378.378,0,0,1-.072-.01c0,.021,0,.043,0,.064l0,.1h-.016a.346.346,0,0,1-.168.22q.038.391.086.781a.374.374,0,0,1,.227.171,3.871,3.871,0,0,1,.255.5.333.333,0,0,1,.248.251l.014,0,0,.088a3.627,3.627,0,0,1,.019,1.077v.068h-.011a3.687,3.687,0,0,1-.219.791l0,.015h-.009q-.027.069-.058.139a.338.338,0,0,1-.354.195.388.388,0,0,1-.349-.28c-.017-.073-.034-.147-.051-.221-.028.44-.071.883-.129,1.332l0,.092h-.018a.413.413,0,0,1-.42.268.335.335,0,0,1-.312-.268h-.022l.014-.109a11.82,11.82,0,0,1,.134-1.41q.018-.3.026-.6l-.533,1.847h0a.4.4,0,0,1-.466.248.329.329,0,0,1-.28-.35l-.017,0,.029-.1q.039-.308.074-.614l0,0q-.1.38-.232.754l0,.044-.013,0a.4.4,0,0,1-.456.25.341.341,0,0,1-.288-.351l-.025,0,.028-.08.113-2.76q-.166,1.447-.368,2.89l-.009.089h0a.35.35,0,0,1-.4.259.36.36,0,0,1-.343-.36h0l0-.035q.025-.245.051-.49-.155.646-.316,1.288l-.022.1-.015,0A.341.341,0,0,1,1380.882,761.489Zm-.185-.316a.2.2,0,0,0,.139.109.171.171,0,0,0,.147-.031Zm-.669-.125a.129.129,0,0,0,.137.09.226.226,0,0,0,.192-.134Zm.683-.08.343.094a33.62,33.62,0,0,0,.609-4.2C1381.37,758.24,1381.052,759.611,1380.712,760.968Zm4.044-.159a.14.14,0,0,0,.116.067.222.222,0,0,0,.174-.067Zm-4.41-3.48q-.123,1.765-.321,3.516l.315-.043a8.344,8.344,0,0,1,.33-3.38l.04-.17q.085-1.233.133-2.47l-.409,2.117Q1380.392,757.113,1380.346,757.329Zm1.347,3.146c.01.09.109.126.165.133.016,0,.146.014.179-.086Zm3.057.133h.349a11.406,11.406,0,0,1,.127-1.265q.023-.376.031-.75-.061-.312-.115-.625c-.117.474-.207.918-.273,1.344Q1384.831,759.955,1384.75,760.608Zm-1.137-.149a.133.133,0,0,0,.12.125.207.207,0,0,0,.218-.079Zm-.906-.019a.141.141,0,0,0,.124.126.2.2,0,0,0,.209-.081Zm-.99-.165.347.047q.149-1.458.373-2.918.178-1.56.313-3.116-.331,1.754-.715,3.5Q1381.889,759.041,1381.717,760.275Zm1.937-.014.334.045q.12-.965.208-1.91Zm-.9-.019.319.043.02-.486a.421.421,0,0,1-.168-.109Q1382.843,759.968,1382.75,760.243Zm-1.841-2.96q-.1,1.459-.253,2.909a32.846,32.846,0,0,0,.5-4.076l-.071.368C1381.033,756.745,1380.974,757.009,1380.91,757.283Zm-2.153,2.747a.223.223,0,0,0,.153.111.146.146,0,0,0,.13-.033Zm-3.83.016a.149.149,0,0,0,.12.067.218.218,0,0,0,.177-.067Zm.861-.077a.214.214,0,0,0,.149.111.153.153,0,0,0,.138-.032Zm4.807-1.234a7.075,7.075,0,0,0-.125,1.318Q1380.537,759.395,1380.594,758.734Zm-.583.254a7.45,7.45,0,0,0-.09.937Q1379.969,759.457,1380.011,758.988Zm-1.253.833.341.094c.257-1.605.473-3.224.648-4.842Zm-4.646-.027a.159.159,0,0,0,.128.068.2.2,0,0,0,.163-.068Zm1.682-.033.343.095a34.84,34.84,0,0,0,.491-3.947Zm-.875.083h.355a27.62,27.62,0,0,0,.012-3.132Q1375.073,758.277,1374.919,759.844Zm10.733-.37.02.085a.19.19,0,0,0,.171.125.143.143,0,0,0,.151-.076c.012-.028.025-.056.036-.085Zm-2.818-2.215-.1,2.334q.047-.17.089-.341Zm-8.737,2.333h.349l0-3.685Zm3.665-.123a.194.194,0,0,0,.133.109.178.178,0,0,0,.154-.029Zm.02-.2.343.094a39.824,39.824,0,0,0,.76-4.456C1378.538,756.368,1378.17,757.826,1377.783,759.267Zm5.528.056.075.01,0-.011.007-2.062Zm2.436-.039.238.031q-.039-.17-.076-.341a.366.366,0,0,1-.05-.03A3,3,0,0,1,1385.746,759.284Zm-1.267-1.864q-.07.931-.172,1.879l.393-1.353q-.007-.562-.047-1.124Zm-1.426,1.869.057.008.019-.465-.018.083Zm-9.98-.15a.185.185,0,0,0,.165.133.163.163,0,0,0,.172-.087Zm10.863-1.949q-.07.982-.176,1.983l.52-1.789c.078-1.041.125-2.068.143-3.088-.026-.085-.05-.17-.072-.256C1384.228,755.108,1384.086,756.161,1383.936,757.19Zm2.187,1.827.034.155q.026-.084.047-.168A.426.426,0,0,1,1386.123,759.017Zm-.607-.16c.021.1.042.2.064.3a2.707,2.707,0,0,0,.13-.479v-.027h0v-.013a3.149,3.149,0,0,0-.042-.462C1385.613,758.395,1385.562,758.623,1385.516,758.856Zm-8.408.065c.013.109.14.129.156.132s.144.017.186-.085Zm-4.007.018.328.044.007-1.512Zm12.979-.124h.019a.176.176,0,0,0,.144-.069h-.178Zm-8.943-.094.339.046.229-2.9Zm8.887-.177h.242a3.516,3.516,0,0,0-.119-.788l-.23.031a3.1,3.1,0,0,1,.031.365Q1385.985,758.35,1386.024,758.546Zm-14.1-.141a.164.164,0,0,0,.143.13.183.183,0,0,0,.189-.085Zm10.025-2.917q-.055,1.394-.225,2.783l.069-.311q.047-.328.1-.656.174-1.542.309-3.1Q1382.076,754.846,1381.948,755.487Zm-9.988,2.719.319.043a6.616,6.616,0,0,1,.6-2.7v-.279Zm1.681-1.635-.007,1.646.255-1.12v-1.621Zm7.767-1.761a33.159,33.159,0,0,1-.235,3.355q.3-1.347.575-2.7.047-1.22.005-2.441Zm4.044,2.667q.012.34.013.681.049-.2.1-.4A2.828,2.828,0,0,0,1385.451,757.477Zm-12.371-.966-.007,1.644.366-1.607.005-1.2Zm10.522-.961-.009,2.572q.055-.361.108-.725a22.113,22.113,0,0,0,.056-3.077Q1383.684,754.939,1383.6,755.549Zm-.559-.458-.01,3.012q.056-.371.112-.747a21.26,21.26,0,0,0,.054-3.038Q1383.119,754.7,1383.043,755.091Zm1.859,2.883v.127q.072-.3.159-.625l-.005-.033Zm-9.48-2.215q.082.95.1,1.9c.172-1.375.38-2.752.623-4.12q0-.845-.046-1.693Q1375.715,753.787,1375.422,755.759Zm-.491.977q.023.45.031.9.118-.943.257-1.885-.042-.485-.1-.971Zm-2.051-.661a6.347,6.347,0,0,0-.364,1.556l.363-1.153Zm13.17,1.382a.182.182,0,0,0-.154.131l.192-.026Q1386.07,757.51,1386.05,757.458Zm-11.4-1.812,0,1.918.08-.832Q1374.7,756.187,1374.652,755.645Zm-.562,1.475v.444l.073-.762Zm-1.349-2.069a.176.176,0,0,0-.045.059h0a7.087,7.087,0,0,0-.729,2.4Zm12.785,2.127c.028.051.055.1.08.154-.008-.054-.016-.108-.024-.162Zm-.7-.756q.041.448.062.893l.1-.354q-.035-.262-.066-.526Zm1.112.765-.032.108a.437.437,0,0,1,.07-.026Zm-7.895-3-.24,3.036.589-2.958q.13-1.335.168-2.677Zm-1.151.515q-.039,1.227-.164,2.453l.5-2.317.211-2.67Zm.537.165-.18,2.277.594-2.984.151-1.9Zm-1.079-1.315a34.292,34.292,0,0,1-.171,3.5l.513-2.371q.043-1.4-.027-2.8Q1376.495,752.717,1376.346,753.555Zm9.077,3.383,0,.051.127-.016c-.008-.058-.016-.115-.023-.173a.176.176,0,0,0-.1.112Zm.315-.1.015.109.05-.007-.042-.072A.2.2,0,0,0,1385.738,756.837Zm-5.607-3.6q-.161,1.817-.392,3.636l.565-2.714q.03-.97.038-1.937Zm-.768,2.086q-.079.713-.169,1.424l.738-3.54q.025-.287.049-.574Q1379.684,753.975,1379.363,755.32Zm6.013,1.025c.01.1.018.2.026.294a.379.379,0,0,1,.1-.044q-.046-.366-.081-.733a.38.38,0,0,1-.356-.231l-.027-.017q.014.165.031.329a.4.4,0,0,1,.3.351l.019,0Zm-.763-1.517q-.023.824-.071,1.656l.063-.218-.008-.078.029,0a.362.362,0,0,1,.241-.249q-.034-.34-.059-.681Q1384.7,755.047,1384.613,754.828Zm-5.389-1.383q-.111,1.485-.333,2.962.138-.56.273-1.122.152-1.371.264-2.747Q1379.327,752.992,1379.224,753.446Zm-.635.853q-.1,1-.246,1.99.354-1.432.681-2.872.066-.883.092-1.768Zm6.515,1.959.056.007a.2.2,0,0,0-.065-.089C1385.1,756.2,1385.1,756.23,1385.1,756.257Zm-.272-.037.066.009-.008-.075A.156.156,0,0,0,1384.832,756.221Zm-10.739-1.5,0,1.487.221-.971.046-.48Zm6.991-1.184q-.028,1.172-.089,2.345l.212-1.1q.017-.9-.015-1.8Zm-8,2.05v.241l.323-1.028-.319-.043v.168a.421.421,0,0,1,.073.084.374.374,0,0,1,.019.382Q1373.13,755.491,1373.084,755.589Zm7.421-1.409q-.026.821-.068,1.641l.446-2.3q.015-.622.02-1.243Zm5.946,1.459a.183.183,0,0,0,.148.069.174.174,0,0,0,.143-.069Zm-11.786-1.564q.109.726.179,1.461l.144-1.5Zm12.445,1.37a.167.167,0,0,0,.138.069.172.172,0,0,0,.149-.069Zm-.69-.008h.349c-.019-.382-.02-.759,0-1.132a12.126,12.126,0,0,0-.187-1.537,11.563,11.563,0,0,0-.172,1.519C1386.431,754.668,1386.435,755.05,1386.42,755.439Zm-1.182-.049h.142c0-.045-.007-.09-.011-.135h-.134C1385.237,755.3,1385.238,755.345,1385.239,755.39Zm1.847-.144h.345q-.012-.269-.008-.532a.346.346,0,0,1-.209-.325l-.018,0,.021-.071a3.416,3.416,0,0,0-.06-.749q-.03.2-.05.408A10.224,10.224,0,0,1,1387.086,755.245Zm-1.291-.038a.185.185,0,0,0,.086.026.2.2,0,0,0,.164-.068h-.252Zm-.568-.153h.1c-.022-.043-.043-.086-.063-.129l-.042.078Zm.645-.09h.217q.007-.37.038-.732,0-.151,0-.3A3.115,3.115,0,0,1,1385.872,754.964Zm-1.807-.7q-.005.288-.013.577.039-.309.076-.62A.387.387,0,0,1,1384.065,754.266Zm.91.441.025.012c0-.034-.007-.069-.011-.1l-.019,0C1384.972,754.644,1384.974,754.676,1384.975,754.707Zm2.982-.2s0,.009,0,.014a.2.2,0,0,0,.149.177.173.173,0,0,0,.189-.085l.008-.012Zm-2.439-.18c.005.124.011.249.018.373,0-.056.005-.113.008-.169S1385.528,754.4,1385.518,754.331Zm.26-.222q0,.27,0,.541a2.921,2.921,0,0,0,.117-1.389Q1385.819,753.682,1385.778,754.109Zm-3.235-1.746q-.079,1.123-.18,2.245.214-1.07.465-2.127l0-.078Zm-9.432,2.2.332.045a.162.162,0,0,0-.141-.129A.183.183,0,0,0,1373.112,754.559Zm1-.037.267.036.008-.083a.216.216,0,0,0-.1-.04A.159.159,0,0,0,1374.111,754.522Zm10.515-.255c.016.051.032.1.049.152q-.013-.277-.044-.548Q1384.629,754.068,1384.625,754.267Zm3.432.063.241.065a2.414,2.414,0,0,0-.072-.318Zm.325-.421a2.427,2.427,0,0,1,.108.417l.115-.172a.139.139,0,0,0,.017-.146.213.213,0,0,0-.173-.108A.179.179,0,0,0,1388.383,753.909Zm-3.167.364.014.039c0-.062-.008-.123-.012-.185Q1385.217,754.2,1385.216,754.273Zm2.461-.026.031,0c-.01-.034-.021-.068-.033-.1C1387.675,754.182,1387.676,754.215,1387.677,754.247Zm-4.626-1.154,0,.97q.054-.253.109-.505c-.021-.319-.045-.634-.07-.946Q1383.069,752.852,1383.05,753.094Zm-8.187.646h-.006a.238.238,0,0,0-.205.135l.332-.045A.115.115,0,0,0,1374.864,753.74Zm9.206-.773q0,.4,0,.8a6.2,6.2,0,0,1,.118-.654c-.011-.108-.019-.218-.024-.328Q1384.116,752.875,1384.07,752.967Zm-4.345-1.71q-.084,1.245-.2,2.49.279-1.223.538-2.445Zm1.635,1.019q.041.728.051,1.456l.273-1.412Zm5.928.973a3.633,3.633,0,0,1,.1.478l.008-.028-.01-.013.014,0,.039-.136q-.013-.15-.031-.3Zm.436.3c-.005.032-.01.064-.015.1l.029,0C1387.734,753.608,1387.729,753.578,1387.724,753.547Zm.193-.068c.008.045.015.09.022.135l.075-.01c-.014-.023-.028-.046-.043-.069A.189.189,0,0,0,1387.917,753.478Zm-10.172-2.634-.2,2.526.537-2.481Zm6.943,2.154c.018.079.034.158.05.238a.381.381,0,0,1,.02-.085q-.013-.117-.022-.236Zm-1.074-.518,0,.678q.027-.129.059-.256-.019-.249-.039-.493Zm2.638.482q.016.089.031.179.061-.311.141-.621l.01-.05h-.258Q1386.22,752.715,1386.251,752.961Zm-.879-.263a2.711,2.711,0,0,1,.123.37q-.025-.194-.058-.388Zm-4.827-1.322q0,.841-.013,1.685l.342-1.64Zm6.7,1.671h.134q-.01-.071-.021-.143a.138.138,0,0,0-.108.115Zm-1.257-.267q.04.132.069.266l-.007-.055q-.024-.132-.05-.263Zm-1.069-.171c0,.114.009.226.017.338a.364.364,0,0,1,.049-.02l.024-.124q-.044-.186-.1-.37a.4.4,0,0,1,.006.068q0,.038,0,.076l.018,0Zm-1.683-.6q.037.433.072.877.038-.163.077-.325l.023-.553Zm4.011.3q-.058.251-.1.5a.338.338,0,0,1,.183-.1Q1387.292,752.5,1387.249,752.3Zm-.427-.252q.08.321.138.642.062-.321.143-.642Zm-8.047-1.419q0,1-.059,2l.389-1.953Zm5.286,1.676c0,.081,0,.161,0,.241q.044-.078.092-.155v-.024l.013,0,.042-.067a.39.39,0,0,1,.054-.068q-.04-.12-.085-.241Q1384.117,752.151,1384.061,752.307Zm-7.8-1.092q.046.66.067,1.32.122-.64.254-1.277Zm8.363,1.281.093.025v-.02a.162.162,0,0,0-.082-.146l-.013.035C1384.623,752.425,1384.624,752.461,1384.625,752.5Zm.752-.138a.2.2,0,0,0-.082.141v.012l.108-.029C1385.394,752.44,1385.386,752.4,1385.377,752.358Zm.485.068,0,.009.039-.149,0-.018h.009l.012-.046-.013-.063Zm-.285-.1.02.1.041-.011-.012-.026A.156.156,0,0,0,1385.577,752.328Zm-.863-.161a.363.363,0,0,1,.176.186q-.051-.17-.109-.338Q1384.746,752.092,1384.714,752.168Zm1.423.1h.338l-.006-.026a.16.16,0,0,0-.16-.122.172.172,0,0,0-.18.11Zm-3.57-.1.274.037,0-.088a.244.244,0,0,0-.1-.035C1382.72,752.073,1382.6,752.065,1382.567,752.163Zm2.961-.056a.318.318,0,0,1,.173.064l.057-.3h-.288C1385.491,751.95,1385.51,752.028,1385.528,752.107Zm-4.159-.033.333.045a.217.217,0,0,0-.189-.135A.134.134,0,0,0,1381.369,752.073Zm5.414-.225h.358l-.006-.023a.169.169,0,0,0-.173-.125h0a.17.17,0,0,0-.173.125Zm-2.741-.192c0,.047,0,.093,0,.141l.031-.069-.013-.033.027,0,.019-.041Zm.564.109.088.012-.028-.073a.215.215,0,0,0-.065-.086C1384.6,751.667,1384.605,751.716,1384.607,751.765Zm-.306-.04.082.011c0-.026,0-.053.007-.079h-.056Zm1.132-.056h.356l-.006-.022a.187.187,0,0,0-.2-.126.146.146,0,0,0-.148.118Zm-1.354-.214h.151a.308.308,0,0,1,.073-.054.188.188,0,0,0-.07-.015A.2.2,0,0,0,1384.079,751.455Zm-3.516-.28.337.046a.19.19,0,0,0-.172-.133A.153.153,0,0,0,1380.563,751.175Zm-.813-.119.341.046a.19.19,0,0,0-.341-.046Zm-3.48-.043.333.045a.219.219,0,0,0-.188-.135A.131.131,0,0,0,1376.27,751.013Zm1.5-.369.341.046a.163.163,0,0,0-.151-.131A.176.176,0,0,0,1377.771,750.644Zm1.021-.214.338.046a.19.19,0,0,0-.174-.134A.152.152,0,0,0,1378.792,750.43Z" transform="translate(-1371.696 -750.14)"/></g></g><g transform="translate(-43.506 314.284)"><g transform="translate(1187.667 27.418)"><g transform="translate(0 0)"><path class="a" d="M1191.911,35.69c-2.11-1.954-.749-5.052.747-6.247,1.447-1.156,4.665-1.914,5.153,1.451a.32.32,0,0,0,.6.152c1.2-2.067,3.312-3.678,5.562-2.308a3.935,3.935,0,0,1,1.893,3.071c.077,1.442-.689,2.812-1.878,2.815-.36,0-.427.612-.058.79,1.136.547,1.569,2.2,1.379,3.5a4.077,4.077,0,0,1-2.358,2.956,6.207,6.207,0,0,1-3.482.914,3.057,3.057,0,0,1-1.6-.9,1.386,1.386,0,0,0-.972-.469c-.474.037-.841.547-1.19.843a6.554,6.554,0,0,1-1.777,1.12,3.852,3.852,0,0,1-3.908-.524c-2.834-2.272-1.817-7.335,1.307-7.145.417.026.393-.786-.026-.812-2.2-.134-3.925,1.975-3.6,4.8a5.144,5.144,0,0,0,4.649,4.8,5.515,5.515,0,0,0,3.583-1.411,4.776,4.776,0,0,1,.665-.593c.505-.252.819-.048,1.238.32a3.056,3.056,0,0,0,1.408.738,5.754,5.754,0,0,0,3.385-.64,5.666,5.666,0,0,0,2.7-2.126c1.117-1.78.816-5.143-1.267-6.145l-.058.79c2.792-.007,3.24-4.512,1.114-6.686-2.666-2.727-5.737-.84-7.295,1.839l.6.152a3.727,3.727,0,0,0-2.458-3.053,4.258,4.258,0,0,0-3.879,1.2c-1.833,1.568-2.905,5.236-.483,7.479.356.329.652-.347.3-.674Z" transform="translate(-1187.667 -27.418)"/></g></g><g transform="translate(1188.618 27.988)"><g transform="translate(0)"><path class="a" d="M1190.07,37.664a13.142,13.142,0,0,0,.29,4.923c.114.459.637.409.635-.044q-.008-2.814-.016-5.629l-.635.044,1.547,6.363c.108.443.667.423.635-.044q-.225-3.344-.449-6.689l-.635.044,1.786,7.26c.129.524.707.36.62-.153l-1.423-8.4-.583.257a51.791,51.791,0,0,1,2.384,8.427c.1.525.707.361.62-.153q-1.086-6.425-1.614-12.882l-.635.044a64.249,64.249,0,0,1,2.549,12.594c.052.518.691.593.651.065q-.518-6.82-1.035-13.639l-.635.044q1.079,5.9,2.158,11.809c.083.453.676.415.635-.044q-.552-6.2-1.1-12.394l-.635.044a73.409,73.409,0,0,1,1.985,12.866c.033.522.669.59.65.065q-.223-6.163-.72-12.342l-.635.044q1.226,6.356,1.985,12.759c.061.513.694.6.651.065l-1.06-12.921-.635.044q1.736,6.936,2.826,13.991l.583-.257c-.844-1.919-.786-4.4-.978-6.454q-.293-3.131-.586-6.263l-.635.044a62.156,62.156,0,0,1,2.4,12.853c.041.52.677.592.65.065q-.324-6.575-1.053-13.161l-.635.044q1.121,5.885,1.919,11.808l.635-.044a110.008,110.008,0,0,1-1.352-12.676l-.635.044c1.282,4.023,2.558,8.139,2.46,12.349l.635-.044-2.606-12.218-.62.153q1.315,5.386,2.628,10.772c.107.436.692.427.635-.044-.471-3.891-.98-7.775-1.677-11.648l-.62.153a103.924,103.924,0,0,1,2.652,12.765.319.319,0,1,0,.635-.044q-.063-3.1-.126-6.2l-.635.044a36.36,36.36,0,0,1,1.468,6.3l.62-.153a26.6,26.6,0,0,1-.543-5.433l-.543.235a5.288,5.288,0,0,1,1.039,2.087l.62-.153-.379-1.448-.583.256a5.214,5.214,0,0,1,.366,2.429l.59-.044a50.807,50.807,0,0,1-2.964-8.586l-.583.257a14.693,14.693,0,0,1,1.078,2.969l.62-.153c-.4-1.418-.734-2.847-.995-4.3l-.528.344a4.606,4.606,0,0,1,.645,3.66l.535-.132a9.983,9.983,0,0,1-1.685-3.6c-.1-.4-.547-.43-.628-.059a10.607,10.607,0,0,0-.236,2.351l.635-.044a10.916,10.916,0,0,1-.084-3.105l-.59.044a15.057,15.057,0,0,1,1.586,3.764c.117.43.681.433.635-.044l-.4-4.239-.6.147a17.4,17.4,0,0,1,1.479,4.621l.62-.153a19.442,19.442,0,0,1-.531-3.951l-.6.148A21.739,21.739,0,0,1,1205.4,34.6l.62-.153a21.426,21.426,0,0,1-.87-5.221l-.6.148a18.538,18.538,0,0,1,1.511,4.77l.62-.153a15.823,15.823,0,0,1-.6-3.18l-.6.148a6.571,6.571,0,0,1,.611,1.709c.1.461.645.407.635-.044q-.012-.568-.024-1.136l-.543.235a2.4,2.4,0,0,1,.588,1.019c.131.381.533.453.628.059l.179-.745c.116-.484-.52-.753-.635-.272l-.179.746.628.059a4.009,4.009,0,0,0-.772-1.4c-.214-.252-.551-.122-.543.235q.012.568.024,1.137l.635-.044a7.379,7.379,0,0,0-.686-1.916c-.173-.334-.633-.275-.6.147a17.041,17.041,0,0,0,.631,3.4c.151.513.711.365.62-.153a19.367,19.367,0,0,0-1.586-4.977.308.308,0,0,0-.6.147,22.366,22.366,0,0,0,.9,5.439c.149.507.73.368.62-.153a22.839,22.839,0,0,0-1.511-4.655.308.308,0,0,0-.6.147,20.518,20.518,0,0,0,.562,4.169c.125.523.71.361.62-.153a18.22,18.22,0,0,0-1.554-4.829c-.166-.343-.637-.266-.6.148q.2,2.12.4,4.239l.635-.044a15.9,15.9,0,0,0-1.662-3.972c-.157-.266-.547-.328-.59.044a12.432,12.432,0,0,0,.1,3.53.319.319,0,1,0,.635-.044,9.6,9.6,0,0,1,.221-2.144l-.628-.059a11.1,11.1,0,0,0,1.87,3.984c.186.25.47.137.535-.132a5.642,5.642,0,0,0-.844-4.468c-.239-.358-.593-.016-.528.344.261,1.45.591,2.878.995,4.3.144.507.748.364.62-.153a15.793,15.793,0,0,0-1.152-3.176c-.2-.409-.7-.2-.583.256a52.043,52.043,0,0,0,3.039,8.793c.134.3.56.3.59-.044a6.452,6.452,0,0,0-.455-3.061c-.172-.433-.7-.186-.583.257l.378,1.448c.134.512.754.361.62-.153a6.372,6.372,0,0,0-1.224-2.47c-.212-.263-.548-.114-.543.235a27.82,27.82,0,0,0,.574,5.651c.117.532.693.354.62-.153a36.362,36.362,0,0,0-1.468-6.3c-.139-.423-.645-.439-.635.044q.063,3.1.126,6.2l.635-.044a103.878,103.878,0,0,0-2.652-12.765c-.143-.517-.713-.364-.62.153.683,3.8,1.184,7.611,1.646,11.43l.635-.044-2.628-10.772c-.126-.517-.73-.364-.62.153q1.3,6.109,2.607,12.218c.1.475.625.391.635-.044.1-4.277-1.187-8.478-2.49-12.567-.134-.419-.659-.442-.635.044a111.909,111.909,0,0,0,1.383,12.894c.075.452.7.415.635-.044q-.81-6.03-1.95-12.026c-.086-.45-.686-.417-.635.044q.729,6.584,1.053,13.161l.65.065A63.262,63.262,0,0,0,1199.232,31c-.125-.42-.681-.441-.635.044l.664,7.1c.186,1.987.185,4.177,1.005,6.044.2.454.649.169.583-.256q-1.089-7.048-2.826-13.991c-.109-.439-.674-.427-.635.044l1.059,12.921.651.065q-.771-6.509-2.016-12.977c-.088-.453-.672-.415-.635.044q.5,6.179.72,12.343l.65.065a74.688,74.688,0,0,0-2.015-13.084c-.108-.439-.677-.426-.635.044q.551,6.2,1.1,12.394l.635-.044-2.158-11.809c-.083-.455-.67-.413-.635.044q.517,6.819,1.035,13.639l.651.065a65.379,65.379,0,0,0-2.579-12.812c-.129-.417-.676-.444-.635.044q.539,6.561,1.644,13.1l.62-.153a53,53,0,0,0-2.458-8.634c-.175-.464-.654-.165-.583.256l1.423,8.4.62-.153-1.786-7.26c-.109-.442-.667-.424-.635.044q.225,3.345.45,6.689l.635-.044q-.773-3.182-1.547-6.363c-.112-.459-.637-.408-.635.044l.016,5.629.635-.044a12,12,0,0,1-.276-4.5c.066-.5-.569-.776-.635-.271Z" transform="translate(-1189.959 -28.791)"/></g></g></g></g></svg>