<svg xmlns="http://www.w3.org/2000/svg" xmlns:xlink="http://www.w3.org/1999/xlink" width="239.508" height="78.681" viewBox="0 0 239.508 78.681"><defs><style>.a{fill:url(#a);}</style><linearGradient id="a" x1="0.227" y1="1.491" x2="0.773" y2="-0.17" gradientUnits="objectBoundingBox"><stop offset="0" stop-color="#374ad3"/><stop offset="0.25" stop-color="#4942c5"/><stop offset="0.752" stop-color="#7930a2"/><stop offset="1" stop-color="#93278f"/></linearGradient></defs><path class="a" d="M1537.945,320.851h0a26.544,26.544,0,0,0-20.309,9.426l-13.4,13.249V322.242H1492.3v25.07a14.676,14.676,0,0,1-29.352,0v-25.07H1451.02l-12.713,13.892a5.989,5.989,0,0,0-.878.96l-1.112,1.215V295.385H1424.4V325.2a26.433,26.433,0,0,0-14.652-4.409h0a26.506,26.506,0,0,0-20.41,9.564l-.012-.06-4.93,5.224-17.912,18.535a27.421,27.421,0,0,1-10.763,7.28,13.731,13.731,0,0,1-10.219-.75l27.659-28.773-.54-.793h0a26.562,26.562,0,0,0-28.459-9.249h0a26.566,26.566,0,0,0,14.9,51h0a37.408,37.408,0,0,0,13.621-7.5,37.785,37.785,0,0,0,3.255-3.151h0q.281-.307.556-.62l.022-.027c.119-.135.238-.269.354-.406l6.627-7.485c.12-.107.237-.219.349-.336a26.568,26.568,0,0,0,25.9,20.671h0a26.524,26.524,0,0,0,21.64-11.167v.014l19.629-23.282v7.828a26.607,26.607,0,0,0,26.607,26.607h0a26.492,26.492,0,0,0,16.73-5.922v0l.035-.032q.958-.778,1.838-1.641l15.578-13.91a26.61,26.61,0,0,0,26.138,21.648h0a26.607,26.607,0,0,0,0-53.215ZM1347.507,333.2a14.592,14.592,0,0,1,10.461.866l-19.259,20.126a14.635,14.635,0,0,1,8.8-20.992Zm37.186,5.336c-.008-.141-.014-.281-.024-.422.009.137.02.275.027.411Zm-.153-1.924q-.06-.546-.138-1.1Q1384.481,336.07,1384.54,336.615Zm.1,1.089c-.019-.244-.042-.489-.067-.735C1384.6,337.215,1384.623,337.46,1384.641,337.7Zm-5.01,19.645-.079.122Zm.93-1.533-.083.147Zm-.448.761-.1.159Zm29.639,5.428a14.652,14.652,0,1,1,14.652-14.652A14.653,14.653,0,0,1,1409.753,362.007Zm128.192.128a14.676,14.676,0,1,1,14.677-14.676A14.676,14.676,0,0,1,1537.945,362.135Z" transform="translate(-1325.044 -295.385)"/></svg>