<svg xmlns="http://www.w3.org/2000/svg" xmlns:xlink="http://www.w3.org/1999/xlink" width="36.362" height="32.874" viewBox="0 0 36.362 32.874"><defs><style>.a{fill:#374ad3;stroke-linejoin:round;stroke-width:2px;}.a,.b{stroke:#374ad3;}.b{fill:none;stroke-linecap:round;}.c{filter:url(#c);}.d{filter:url(#a);}</style><filter id="a" x="0" y="0" width="28.776" height="32.874" filterUnits="userSpaceOnUse"><feOffset dy="3" input="SourceAlpha"/><feGaussianBlur stdDeviation="3" result="b"/><feFlood flood-opacity="0.161"/><feComposite operator="in" in2="b"/><feComposite in="SourceGraphic"/></filter><filter id="c" x="11.347" y="0.358" width="25.015" height="32.18" filterUnits="userSpaceOnUse"><feOffset dy="3" input="SourceAlpha"/><feGaussianBlur stdDeviation="3" result="d"/><feFlood flood-opacity="0.161"/><feComposite operator="in" in2="d"/><feComposite in="SourceGraphic"/></filter></defs><g transform="translate(4 -6.769)"><g class="d" transform="matrix(1, 0, 0, 1, -4, 6.77)"><path class="a" d="M14.776,13.769l-4.509,3.9H6v5.018h4.2l4.573,3.956Z" transform="translate(4 -6.77)"/></g><g class="c" transform="matrix(1, 0, 0, 1, -4, 6.77)"><path class="b" d="M48,17.575A5.125,5.125,0,0,1,48,23.2m1.866-7.491a7.885,7.885,0,0,1,0,9.357M51.575,14a10.2,10.2,0,0,1,0,12.774" transform="translate(-26.96 -6.94)"/></g></g></svg>