<svg xmlns="http://www.w3.org/2000/svg" width="300.945" height="309.659" viewBox="0 0 300.945 309.659"><defs><style>.a{fill:#87888a;}.a,.c{opacity:0.4;}.b{fill:#fff;}.c{fill:#b2b3b5;}.d{fill:#ececf0;}.e,.u{fill:#88ba34;}.e,.i{stroke-linecap:round;stroke-linejoin:round;}.f{fill:#b0b1b3;}.g{fill:#bdbec0;}.h{fill:#d1d2d4;}.i{fill:none;stroke:#b0b1b3;}.j{fill:#374ad3;}.k{fill:#5d6ee3;}.l{fill:#b4b3b3;}.m{fill:#edefc7;}.n{fill:#d2d2d2;}.o{fill:#dddde0;}.p{fill:#fdfffe;}.q{fill:#543823;}.r{fill:#fcb040;}.s{fill:#e6a03a;}.t,.u{stroke:none;}</style></defs><g transform="translate(-37.467 -59.566)"><path class="a" d="M174.4,361.7l-3.51-3.51a1.1,1.1,0,0,0-1.56,0l-1.1,1.1a1.1,1.1,0,0,0,0,1.56l.455.455-.5.5a1.1,1.1,0,0,0-.137,1.393l-1.891,1.891a23.993,23.993,0,0,0-15.9-7.19v-1.323a1.783,1.783,0,0,0,1.783-1.783v-1.139h.743a1.783,1.783,0,0,0,1.783-1.783v-2.526a1.783,1.783,0,0,0-1.783-1.783h-8.024a1.783,1.783,0,0,0-1.783,1.783v2.526a1.783,1.783,0,0,0,1.783,1.783h1.04v1.139a1.782,1.782,0,0,0,1.437,1.748v1.392a23.989,23.989,0,0,0-15.566,7.273l-2.009-2.009a1.1,1.1,0,0,0-.137-1.393l-.5-.5.455-.455a1.1,1.1,0,0,0,0-1.56l-1.1-1.1a1.1,1.1,0,0,0-1.56,0l-3.51,3.51a1.1,1.1,0,0,0,0,1.56l1.1,1.1a1.1,1.1,0,0,0,1.56,0l.325-.325.5.5a1.1,1.1,0,0,0,1.56,0h0l2.063,2.063a24.076,24.076,0,1,0,36.563-.625l.468.469,1.906-1.907h0a1.1,1.1,0,0,0,1.56,0l.5-.5.325.325a1.1,1.1,0,0,0,1.56,0l1.1-1.1A1.1,1.1,0,0,0,174.4,361.7Z" transform="translate(-47.944 -161.473)"/><g transform="translate(37.467 59.566)"><g transform="translate(49.963 22.719)"><path class="b" d="M325.545,176.037v-16.1h13.521V143.715H284.914V127.5H252.774V111.279H188.4V127.5h-37.2v16.218h39.945v16.13H171.163v16.192h-19.97v16.218H360.779V176.037ZM219.478,142.5H196.3V128.112l23.118.134Z" transform="translate(-151.193 -111.279)"/></g><path class="b" d="M189.793,531.548v20.1H166.707v20.1H304.875v-20.1h52.919v-20.1h37.5v-20.1H366.724V491.463H179.24v20.1h34.4v19.988Z" transform="translate(-109.929 -301.721)"/><path class="b" d="M704.5,129.848h-4.833v-4.833h-4.35v4.833h-4.833v4.35h4.833v4.833h4.35V134.2H704.5Z" transform="translate(-403.597 -96.262)"/><path class="b" d="M162.556,709.106h-3.945v-3.945h-3.55v3.945h-3.945v3.55h3.945V716.6h3.55v-3.945h3.945Z" transform="translate(-101.188 -421.537)"/><path class="b" d="M98.641,71.391l.555-3.905,3.905.555.5-3.515L99.7,63.971l.555-3.905-3.515-.5-.555,3.905-3.905-.555-.5,3.515,3.905.555-.555,3.905Z" transform="translate(-67.917 -59.566)"/><path class="b" d="M684.869,745.255,681.5,743.2l2.054-3.368-3.031-1.849-2.054,3.368L675.1,739.3l-1.849,3.031,3.368,2.054-2.054,3.368L677.6,749.6l2.054-3.368,3.368,2.054Z" transform="translate(-393.939 -439.941)"/><path class="b" d="M63.962,568.255A2.659,2.659,0,1,1,61.3,565.6,2.659,2.659,0,0,1,63.962,568.255Z" transform="translate(-49.341 -343.286)"/><circle class="b" cx="5.981" cy="5.981" r="5.981" transform="translate(0 107.017)"/></g><rect class="c" width="111.125" height="90.673" transform="translate(211.216 259.416) rotate(-66.732)"/><path class="c" d="M390.775,245.853H369.737a5.742,5.742,0,0,0-5.61-4.527H346.278a8.887,8.887,0,0,0-16.667,0H311.763a5.742,5.742,0,0,0-5.61,4.527H285.115a3.813,3.813,0,0,0-3.877,3.746V386.474a3.878,3.878,0,0,0,3.877,3.878H390.775a3.878,3.878,0,0,0,3.877-3.878V249.6A3.813,3.813,0,0,0,390.775,245.853Z" transform="translate(-136.677 -98.657)"/><g transform="translate(207.924 152.229)"><rect class="b" width="111.125" height="90.673" transform="translate(0 102.087) rotate(-66.732)"/><rect class="d" width="1.513" height="62.099" rx="0.756" transform="translate(48.931 24.463) rotate(-66.732)"/><rect class="d" width="1.513" height="40.816" rx="0.756" transform="translate(47.842 26.994) rotate(-66.732)"/><rect class="d" width="1.513" height="31.049" rx="0.756" transform="translate(46.737 29.565) rotate(-66.732)"/><rect class="d" width="1.513" height="62.099" rx="0.756" transform="matrix(0.395, -0.919, 0.919, 0.395, 43.548, 36.98)"/><rect class="d" width="1.513" height="40.816" rx="0.756" transform="matrix(0.395, -0.919, 0.919, 0.395, 42.46, 39.511)"/><rect class="d" width="1.513" height="31.049" rx="0.756" transform="translate(41.355 42.081) rotate(-66.732)"/><rect class="d" width="1.513" height="62.099" rx="0.756" transform="translate(37.299 51.514) rotate(-66.732)"/><rect class="d" width="1.513" height="40.816" rx="0.756" transform="translate(36.21 54.045) rotate(-66.732)"/><rect class="d" width="1.513" height="31.049" rx="0.756" transform="translate(35.105 56.615) rotate(-66.732)"/><rect class="d" width="1.513" height="62.099" rx="0.756" transform="translate(23.689 83.165) rotate(-66.732)"/><rect class="d" width="1.513" height="40.816" rx="0.756" transform="translate(22.6 85.695) rotate(-66.732)"/><rect class="d" width="1.513" height="31.049" rx="0.756" transform="translate(21.495 88.266) rotate(-66.732)"/><rect class="d" width="1.513" height="62.099" rx="0.756" transform="translate(31.965 63.918) rotate(-66.732)"/><rect class="d" width="1.513" height="40.816" rx="0.756" transform="translate(30.876 66.449) rotate(-66.732)"/><rect class="d" width="1.513" height="40.816" rx="0.756" transform="matrix(0.395, -0.919, 0.919, 0.395, 27.443, 74.434)"/><rect class="d" width="1.513" height="31.049" rx="0.756" transform="matrix(0.395, -0.919, 0.919, 0.395, 29.771, 69.02)"/><rect class="d" width="1.513" height="25.749" rx="0.756" transform="translate(28.609 71.721) rotate(-66.732)"/><g class="e" transform="translate(-550.133 -335.357)"><path class="t" d="M 648.2794189453125 391.3572692871094 L 648.0516357421875 390.4032897949219 L 647.0860595703125 386.3591613769531 L 648.4564208984375 385.7953796386719 L 649.7085571289062 387.8549194335938 L 654.6467895507812 386.1871337890625 L 655.2460327148438 387.5560607910156 L 649.140380859375 390.8874816894531 L 648.2794189453125 391.3572692871094 Z"/><path class="u" d="M 647.8155517578125 386.1849975585938 L 648.7811279296875 390.2291259765625 L 654.8867797851562 386.897705078125 L 649.379638671875 388.7576293945312 L 647.8155517578125 386.1849975585938 M 647.8150024414062 384.684814453125 C 648.32568359375 384.684814453125 648.8179931640625 384.9464111328125 649.0972900390625 385.40576171875 L 650.0374755859375 386.9522094726562 L 654.4067993164062 385.4765625 C 654.5654907226562 385.4229736328125 654.7273559570312 385.3974304199219 654.88671875 385.3973999023438 C 655.4677124023438 385.3973999023438 656.01611328125 385.7369384765625 656.2609252929688 386.2962341308594 C 656.5728759765625 387.0089111328125 656.2881469726562 387.8418273925781 655.605224609375 388.2144470214844 L 649.4995727539062 391.5458679199219 C 649.2762451171875 391.667724609375 649.0289306640625 391.7291259765625 648.7810668945312 391.7291259765625 C 648.57373046875 391.7291259765625 648.3660278320312 391.6861572265625 648.1715698242188 391.5997009277344 C 647.7446899414062 391.4098205566406 647.4306640625 391.0318908691406 647.3221435546875 390.5774841308594 L 646.3565673828125 386.5333557128906 C 646.18505859375 385.8150634765625 646.5618896484375 385.0787963867188 647.2448120117188 384.7978210449219 C 647.4306030273438 384.7213745117188 647.6241455078125 384.684814453125 647.8150024414062 384.684814453125 Z"/></g><g class="e" transform="translate(-518.414 -409.12)"><path class="t" d="M 591.7069702148438 522.9187622070312 L 591.4791870117188 521.9647827148438 L 590.5136108398438 517.9205932617188 L 591.8839721679688 517.3568115234375 L 593.1361083984375 519.4163208007812 L 598.0743408203125 517.74853515625 L 598.673583984375 519.1174926757812 L 592.5679321289062 522.448974609375 L 591.7069702148438 522.9187622070312 Z"/><path class="u" d="M 591.2431030273438 517.7463989257812 L 592.2086791992188 521.7905883789062 L 598.3143310546875 518.4591064453125 L 592.8071899414062 520.3190307617188 L 591.2431030273438 517.7463989257812 M 591.2425537109375 516.2462158203125 C 591.7532348632812 516.2462158203125 592.2455444335938 516.5078125 592.5248413085938 516.9671630859375 L 593.4650268554688 518.5136108398438 L 597.8343505859375 517.0379638671875 C 597.9930419921875 516.984375 598.1549072265625 516.9588012695312 598.3142700195312 516.9588012695312 C 598.895263671875 516.9588012695312 599.4436645507812 517.29833984375 599.6884765625 517.8576049804688 C 600.0004272460938 518.5703125 599.7156982421875 519.4031982421875 599.0327758789062 519.7758178710938 L 592.9271240234375 523.1072998046875 C 592.703857421875 523.2291870117188 592.4564819335938 523.2905883789062 592.2086181640625 523.2905883789062 C 592.0012817382812 523.2905883789062 591.7935791015625 523.2476196289062 591.59912109375 523.1611328125 C 591.1722412109375 522.9713134765625 590.8582153320312 522.5933837890625 590.7496948242188 522.138916015625 L 589.7841186523438 518.0947265625 C 589.6126098632812 517.37646484375 589.9894409179688 516.6401977539062 590.67236328125 516.3592529296875 C 590.858154296875 516.2827758789062 591.0516967773438 516.2462158203125 591.2425537109375 516.2462158203125 Z"/></g><g class="e" transform="translate(-534.882 -370.825)"><path class="t" d="M 621.076904296875 454.6178894042969 L 620.84912109375 453.6639099121094 L 619.8834838867188 449.6198120117188 L 621.2538452148438 449.0559997558594 L 622.5060424804688 451.1155395507812 L 627.4442138671875 449.4476928710938 L 628.04345703125 450.8166198730469 L 621.9378662109375 454.1481018066406 L 621.076904296875 454.6178894042969 Z"/><path class="u" d="M 620.6129760742188 449.4456176757812 L 621.57861328125 453.48974609375 L 627.6842041015625 450.1582641601562 L 622.1771240234375 452.0182495117188 L 620.6129760742188 449.4456176757812 M 620.6124267578125 447.9454345703125 C 621.123046875 447.9454345703125 621.6154174804688 448.20703125 621.8946533203125 448.6663513183594 L 622.8348999023438 450.2128295898438 L 627.2042236328125 448.7371215820312 C 627.3629150390625 448.6835327148438 627.5247802734375 448.6579895019531 627.6841430664062 448.6579895019531 C 628.26513671875 448.657958984375 628.8135375976562 448.9974975585938 629.058349609375 449.5567626953125 C 629.3703002929688 450.2694396972656 629.0855712890625 451.1023559570312 628.4026489257812 451.4750061035156 L 622.2970581054688 454.8064880371094 C 622.0737915039062 454.9283142089844 621.826416015625 454.98974609375 621.5785522460938 454.98974609375 C 621.3712158203125 454.98974609375 621.1635131835938 454.9468078613281 620.9690551757812 454.8603210449219 C 620.5421752929688 454.6704711914062 620.2281494140625 454.2925415039062 620.11962890625 453.8381042480469 L 619.1539916992188 449.7940063476562 C 618.9824829101562 449.0757141113281 619.3593139648438 448.3394470214844 620.042236328125 448.0584411621094 C 620.2280883789062 447.9819946289062 620.4215087890625 447.9454345703125 620.6124267578125 447.9454345703125 Z"/></g></g><g transform="translate(68.072 184.956)"><path class="f" d="M177.774,366.433h-3.021V362.57h3.021Z" transform="translate(-145.045 -354.843)"/><path class="f" d="M219.075,383.018h0l-1.321-1.321h0l2.547-2.547h0l1.321,1.321h0Z" transform="translate(-169.155 -364.139)"/><path class="f" d="M133.346,383.5h0l1.321-1.321h0l-3.067-3.067h0l-1.322,1.321h0Z" transform="translate(-120.11 -364.117)"/><rect class="g" width="6.241" height="4.805" rx="2.402" transform="translate(28.27 4.21)"/><path class="g" d="M1.486,0h0A1.486,1.486,0,0,1,2.972,1.486v.888A1.486,1.486,0,0,1,1.486,3.86h0A1.486,1.486,0,0,1,0,2.374V1.486A1.486,1.486,0,0,1,1.486,0Z" transform="translate(49.876 15.023) rotate(-45.001)"/><path class="g" d="M1.486,0h.888A1.486,1.486,0,0,1,3.86,1.486v0A1.486,1.486,0,0,1,2.374,2.972H1.486A1.486,1.486,0,0,1,0,1.486v0A1.486,1.486,0,0,1,1.486,0Z" transform="translate(7.945 15.652) rotate(-45)"/><rect class="h" width="11.591" height="6.092" rx="3.046" transform="translate(25.447)"/><rect class="h" width="3.768" height="7.169" rx="1.884" transform="matrix(0.707, -0.707, 0.707, 0.707, 49.92, 12.51)"/><path class="h" d="M1.884,0h3.4A1.884,1.884,0,0,1,7.169,1.884v0A1.884,1.884,0,0,1,5.285,3.768h-3.4A1.884,1.884,0,0,1,0,1.884v0A1.884,1.884,0,0,1,1.884,0Z" transform="translate(4.999 14.915) rotate(-44.999)"/><circle class="h" cx="24.073" cy="24.073" r="24.073" transform="translate(0 21.319) rotate(-22.448)"/><circle class="g" cx="19.082" cy="19.082" r="19.082" transform="translate(12.359 15.293)"/><circle class="b" cx="16.741" cy="16.741" r="16.741" transform="translate(9.48 25.53) rotate(-23.062)"/><g transform="translate(17.314 19.938)"><path class="f" d="M.375,0h0A.375.375,0,0,1,.746.375V2.139a.375.375,0,0,1-.375.375h0A.376.376,0,0,1,0,2.139V.375A.375.375,0,0,1,.375,0Z" transform="translate(13.868)"/><path class="f" d="M.375,0h0A.375.375,0,0,1,.746.375V2.139a.375.375,0,0,1-.375.375h0A.376.376,0,0,1,0,2.138V.375A.375.375,0,0,1,.375,0Z" transform="translate(13.868 25.965)"/><path class="f" d="M.375,0H2.139a.376.376,0,0,1,.376.376v0a.375.375,0,0,1-.375.375H.376A.376.376,0,0,1,0,.371v0A.375.375,0,0,1,.375,0Z" transform="translate(20.016 4.028) rotate(-58.686)"/><path class="f" d="M.376,0H2.138a.376.376,0,0,1,.376.376v0a.375.375,0,0,1-.375.375H.375A.375.375,0,0,1,0,.371v0A.376.376,0,0,1,.376,0Z" transform="translate(6.521 26.21) rotate(-58.686)"/><path class="f" d="M.376,0H2.138a.376.376,0,0,1,.376.376v0a.375.375,0,0,1-.375.375H.375A.375.375,0,0,1,0,.371v0A.376.376,0,0,1,.376,0Z" transform="translate(24.22 8.072) rotate(-29.902)"/><rect class="f" width="2.514" height="0.746" rx="0.373" transform="translate(1.71 21.013) rotate(-29.886)"/><rect class="f" width="0.746" height="2.514" rx="0.373" transform="translate(25.965 14.652) rotate(-89.813)"/><path class="f" d="M.375,0h0A.376.376,0,0,1,.746.376V2.138a.375.375,0,0,1-.375.375h0A.375.375,0,0,1,0,2.139V.375A.375.375,0,0,1,.375,0Z" transform="matrix(0.003, -1, 1, 0.003, 0, 14.565)"/><rect class="f" width="0.746" height="2.514" rx="0.373" transform="translate(24.201 20.437) rotate(-59.938)"/><rect class="f" width="0.746" height="2.514" rx="0.373" transform="translate(1.73 7.428) rotate(-59.925)"/><rect class="f" width="0.746" height="2.514" rx="0.373" transform="translate(24.201 20.437) rotate(-59.938)"/><rect class="f" width="0.746" height="2.514" rx="0.373" transform="translate(1.73 7.428) rotate(-59.925)"/><rect class="f" width="0.746" height="2.514" rx="0.373" transform="matrix(0.862, -0.506, 0.506, 0.862, 19.855, 24.54)"/><rect class="f" width="0.746" height="2.514" rx="0.373" transform="matrix(0.862, -0.506, 0.506, 0.862, 6.71, 2.148)"/><path class="f" d="M179.057,421.239a1.1,1.1,0,1,1-1.1-1.1A1.1,1.1,0,0,1,179.057,421.239Z" transform="translate(-163.54 -407.058)"/><line class="i" y1="7.557" x2="12.413" transform="translate(11.393 8.627)"/></g></g><g transform="translate(142.318 131.081)"><rect class="j" width="113.414" height="144.498" rx="8.826" transform="translate(0 13.869)"/><path class="k" d="M389.547,389.758a3.813,3.813,0,0,1-3.877,3.746H280.01a3.813,3.813,0,0,1-3.878-3.746V257.664a3.814,3.814,0,0,1,3.878-3.746H385.669a3.814,3.814,0,0,1,3.877,3.746Z" transform="translate(-276.132 -240.049)"/><rect class="b" width="100.243" height="122.854" transform="translate(6.586 21.671)"/><g transform="translate(24.784 0)"><path class="l" d="M396.393,249.355a5.742,5.742,0,0,0-5.742-5.742H338.289a5.742,5.742,0,0,0-5.742,5.742V259.46h63.846Z" transform="translate(-332.547 -234.272)"/><circle class="l" cx="8.899" cy="8.899" r="8.899" transform="matrix(0.592, -0.806, 0.806, 0.592, 19.481, 14.339)"/><path class="m" d="M404.458,240.985a2.726,2.726,0,1,1-2.726-2.726A2.727,2.727,0,0,1,404.458,240.985Z" transform="translate(-369.809 -231.27)"/><rect class="n" width="63.846" height="7.033" transform="translate(0 18.155)"/></g><rect class="d" width="68.653" height="1.672" rx="0.836" transform="translate(20.659 47.465)"/><rect class="d" width="45.125" height="1.672" rx="0.836" transform="translate(20.659 50.511)"/><rect class="d" width="34.327" height="1.672" rx="0.836" transform="translate(20.659 53.605)"/><rect class="d" width="54.523" height="2.592" rx="1.296" transform="translate(35.256 68.086)"/><rect class="d" width="54.523" height="2.592" rx="1.296" transform="translate(35.256 81.139)"/><rect class="d" width="54.523" height="2.592" rx="1.296" transform="translate(35.256 94.425)"/><rect class="d" width="54.523" height="2.592" rx="1.296" transform="translate(35.256 106.817)"/><path class="d" d="M332.324,368.3v8.134H324.19V368.3h8.134m1.034-1.034h-10.2v10.2h10.2v-10.2Z" transform="translate(-302.498 -303.602)"/><path class="d" d="M332.324,398.4v8.134H324.19V398.4h8.134m1.034-1.034h-10.2v10.2h10.2v-10.2Z" transform="translate(-302.498 -320.48)"/><path class="d" d="M332.324,428.474v8.134H324.19v-8.134h8.134m1.034-1.033h-10.2v10.2h10.2v-10.2Z" transform="translate(-302.498 -337.34)"/><path class="d" d="M332.324,458.925v8.134H324.19v-8.134h8.134m1.034-1.033h-10.2v10.2h10.2v-10.2Z" transform="translate(-302.498 -354.413)"/><g class="e" transform="translate(-304.779 -303.804)"><path class="t" d="M 330.572265625 376.2676696777344 L 329.9861755371094 375.4812622070312 L 326.6240539550781 370.9700927734375 L 327.6602172851562 369.9108276367188 L 330.4905395507812 371.9246826171875 L 335.8956298828125 367.0699462890625 L 336.9868774414062 368.0908508300781 L 331.1776123046875 375.4960021972656 L 330.572265625 376.2676696777344 Z"/><path class="u" d="M 336.3967895507812 367.6279296875 L 330.5449829101562 372.8838806152344 L 327.2254028320312 370.5219116210938 L 330.5875244140625 375.0330810546875 L 336.3967895507812 367.6279296875 M 336.3966979980469 366.1279296875 C 336.7652282714844 366.1279296875 337.1334838867188 366.2630615234375 337.4215393066406 366.5325317382812 C 337.9896545410156 367.0640258789062 338.0571594238281 367.941650390625 337.5769653320312 368.5537719726562 L 331.7677001953125 375.9589233398438 C 331.4831848144531 376.3216247558594 331.0478515625 376.5330810546875 330.5875549316406 376.5330810546875 C 330.5813293457031 376.5330810546875 330.5751953125 376.5330505371094 330.5689697265625 376.5329895019531 C 330.101806640625 376.5271911621094 329.6640014648438 376.3040771484375 329.3848266601562 375.929443359375 L 326.022705078125 371.4182739257812 C 325.5813903808594 370.826171875 325.63671875 370.0009155273438 326.1531066894531 369.4730224609375 C 326.4445190429688 369.1751098632812 326.8338623046875 369.0218811035156 327.2259216308594 369.0218811035156 C 327.5285949707031 369.0218811035156 327.8328857421875 369.1131896972656 328.0950317382812 369.2997131347656 L 330.4360961914062 370.9654541015625 L 335.3944702148438 366.511962890625 C 335.6797790527344 366.2557067871094 336.0383911132812 366.1279296875 336.3966979980469 366.1279296875 Z"/></g><g class="e" transform="translate(-304.779 -319.36)"><path class="t" d="M 330.572265625 404.0119018554688 L 329.9861755371094 403.2254943847656 L 326.6240539550781 398.7142944335938 L 327.6602172851562 397.655029296875 L 330.4905395507812 399.6689147949219 L 335.8956298828125 394.8141174316406 L 336.9868774414062 395.8350219726562 L 331.1776123046875 403.240234375 L 330.572265625 404.0119018554688 Z"/><path class="u" d="M 336.3967895507812 395.3721008300781 L 330.5449829101562 400.6281127929688 L 327.2254028320312 398.26611328125 L 330.5875244140625 402.7773132324219 L 336.3967895507812 395.3721008300781 M 336.396728515625 393.8721008300781 C 336.7652587890625 393.8721008300781 337.1334838867188 394.0072326660156 337.4215393066406 394.2767028808594 C 337.9896545410156 394.8081970214844 338.0571594238281 395.6858215332031 337.5769653320312 396.2979125976562 L 331.7677001953125 403.7031555175781 C 331.4831848144531 404.0658569335938 331.0478515625 404.2773132324219 330.5875549316406 404.2773132324219 C 330.5813293457031 404.2773132324219 330.5751953125 404.2772827148438 330.5689697265625 404.2772216796875 C 330.101806640625 404.2714233398438 329.6640014648438 404.0483093261719 329.3847961425781 403.6736755371094 L 326.0226745605469 399.1624755859375 C 325.5813903808594 398.5703430175781 325.63671875 397.7451171875 326.1531066894531 397.2172241210938 C 326.4445495605469 396.9193115234375 326.8338623046875 396.7660827636719 327.2259216308594 396.7660827636719 C 327.5285949707031 396.7660827636719 327.8328857421875 396.8573913574219 328.0950317382812 397.0439147949219 L 330.4360961914062 398.7096862792969 L 335.3944702148438 394.2561340332031 C 335.6797790527344 393.9998779296875 336.0383911132812 393.8721008300781 336.396728515625 393.8721008300781 Z"/></g><path class="o" d="M291.123,482.715v30.007h14.595C305.075,512.726,292,497.791,291.123,482.715Z" transform="translate(-284.537 -368.331)"/><path class="d" d="M307.584,495.872a27.061,27.061,0,0,1-9.88-5.084,18,18,0,0,1-6.581-12.814v1.961c.88,15.076,13.952,30.132,14.595,30.129a4.8,4.8,0,0,1-1-3.016C304.636,504.269,306.122,500.467,307.584,495.872Z" transform="translate(-284.537 -365.673)"/></g><path class="c" d="M222.925,516.695l-9.871,4.714.009.01-.011-.011-52.8,53.01,0,0-3.442,3.447.026.026-1.291,1.292a5.1,5.1,0,1,0,7.211,7.2l1.291-1.292.028.028,3.451-3.456,0,0h0l52.8-53.01,0,0,4.754-9.81.024.024,2.117-4.369-4.4,2.1Z" transform="translate(-65.372 -255.069)"/><g transform="translate(87.042 256.201)"><path class="b" d="M159.014,650.667a5.1,5.1,0,0,1-7.206,0h0a5.1,5.1,0,0,1,0-7.206l7.065-7.075a5.1,5.1,0,0,1,7.206,0h0a5.1,5.1,0,0,1,0,7.206Z" transform="translate(-150.313 -578.775)"/><rect class="n" width="4.884" height="10.268" transform="matrix(0.707, -0.708, 0.708, 0.707, 2.754, 63.371)"/><path class="p" d="M284.6,514.338l7.265,7.255,6.762-13.954Z" transform="translate(-225.602 -507.425)"/><path class="q" d="M311.232,507.152l-4.4,2.1,2.279,2.27Z" transform="translate(-238.072 -507.152)"/><rect class="r" width="74.819" height="10.271" transform="translate(6.192 59.922) rotate(-45.114)"/><rect class="s" width="74.819" height="4.505" transform="translate(8.235 61.956) rotate(-45.114)"/><path class="d" d="M321.762,534.563l-.008.033" transform="translate(-246.436 -522.521)"/></g></g></svg>